<svg width="100%" height="100%" viewBox="0 0 1921 1081" version="1.1" xmlns="http://www.w3.org/2000/svg" xmlns:xlink="http://www.w3.org/1999/xlink" xml:space="preserve" xmlns:serif="http://www.serif.com/" style="fill-rule:evenodd;clip-rule:evenodd;stroke-linecap:square;stroke-linejoin:bevel;stroke-miterlimit:1.5;">
    <g transform="matrix(1,0,0,1,-27,-1207)">
        <g id="antelope_code_light" transform="matrix(1,0,0,1,27.856,1207.17)">
            <rect x="0" y="0" width="1920" height="1080" style="fill:rgb(250,250,250);"/>
            <clipPath id="_clip1">
                <rect x="0" y="0" width="1920" height="1080"/>
            </clipPath>
            <g clip-path="url(#_clip1)">
                <g transform="matrix(1.06809,0,0,1,-159.367,0)">
                    <rect x="548" y="90" width="235" height="4" style="fill:rgb(168,177,214);"/>
                </g>
                <g transform="matrix(1,0,0,1,0,3)">
                    <g transform="matrix(1.26526,0,0,1.26526,-114.648,-142.422)">
                        <circle cx="116" cy="134" r="8" style="fill:rgb(238,104,77);"/>
                    </g>
                    <g transform="matrix(1.26526,0,0,1.26526,-86.6102,-142.422)">
                        <circle cx="116" cy="134" r="8" style="fill:rgb(238,156,77);"/>
                    </g>
                    <g transform="matrix(1.26526,0,0,1.26526,-58.5727,-142.422)">
                        <circle cx="116" cy="134" r="8" style="fill:rgb(137,238,77);"/>
                    </g>
                </g>
                <g transform="matrix(1.12633,0,0,1.12633,1812.23,-105.135)">
                    <path d="M-1572.19,1017.33C-1575.74,1014.4 -1578,1009.96 -1578,1005C-1578,996.169 -1570.83,989 -1562,989C-1553.17,989 -1546,996.169 -1546,1005C-1546,1009.96 -1548.26,1014.4 -1551.81,1017.33C-1552.49,1017.89 -1553.21,1018.4 -1553.98,1018.84C-1556.34,1020.21 -1559.08,1021 -1562,1021C-1564.92,1021 -1567.66,1020.21 -1570.02,1018.84C-1570.79,1018.4 -1571.51,1017.89 -1572.19,1017.33ZM-1552.08,1014.87C-1549.56,1012.34 -1548,1008.85 -1548,1005C-1548,997.273 -1554.27,991 -1562,991C-1569.73,991 -1576,997.273 -1576,1005C-1576,1008.85 -1574.44,1012.34 -1571.92,1014.87C-1571.18,1011.67 -1568.91,1009.04 -1565.93,1007.79C-1567.79,1006.53 -1569,1004.4 -1569,1002C-1569,998.137 -1565.86,995 -1562,995C-1558.14,995 -1555,998.137 -1555,1002C-1555,1004.4 -1556.22,1006.53 -1558.07,1007.79C-1555.09,1009.04 -1552.82,1011.67 -1552.08,1014.87ZM-1570.15,1016.38C-1567.85,1018.03 -1565.04,1019 -1562,1019C-1558.96,1019 -1556.15,1018.03 -1553.85,1016.38C-1554.26,1012.24 -1557.75,1009 -1562,1009C-1566.25,1009 -1569.74,1012.24 -1570.15,1016.38ZM-1562,1007C-1559.24,1007 -1557,1004.76 -1557,1002C-1557,999.24 -1559.24,997 -1562,997C-1564.76,997 -1567,999.24 -1567,1002C-1567,1004.76 -1564.76,1007 -1562,1007Z" style="fill:rgb(225,225,225);"/>
                </g>
                <g transform="matrix(1,0,0,1,36.899,128.169)">
                    <path d="M13.333,5.333L5.333,5.333C3.853,5.333 2.667,6.52 2.667,8L2.667,24C2.667,25.463 3.87,26.667 5.333,26.667L26.667,26.667C28.13,26.667 29.333,25.463 29.333,24L29.333,10.667C29.333,9.204 28.13,8 26.667,8L16,8L13.333,5.333Z" style="fill:rgb(225,225,225);fill-rule:nonzero;"/>
                </g>
                <g transform="matrix(1,0,0,1,36.899,164.331)">
                    <path d="M13.333,5.333L5.333,5.333C3.853,5.333 2.667,6.52 2.667,8L2.667,24C2.667,25.463 3.87,26.667 5.333,26.667L26.667,26.667C28.13,26.667 29.333,25.463 29.333,24L29.333,10.667C29.333,9.204 28.13,8 26.667,8L16,8L13.333,5.333Z" style="fill:rgb(225,225,225);fill-rule:nonzero;"/>
                </g>
                <g transform="matrix(1,0,0,1,36.899,200.493)">
                    <path d="M13.333,5.333L5.333,5.333C3.853,5.333 2.667,6.52 2.667,8L2.667,24C2.667,25.463 3.87,26.667 5.333,26.667L26.667,26.667C28.13,26.667 29.333,25.463 29.333,24L29.333,10.667C29.333,9.204 28.13,8 26.667,8L16,8L13.333,5.333Z" style="fill:rgb(225,225,225);fill-rule:nonzero;"/>
                </g>
                <g transform="matrix(1,0,0,1,36.899,236.654)">
                    <path d="M13.333,5.333L5.333,5.333C3.853,5.333 2.667,6.52 2.667,8L2.667,24C2.667,25.463 3.87,26.667 5.333,26.667L26.667,26.667C28.13,26.667 29.333,25.463 29.333,24L29.333,10.667C29.333,9.204 28.13,8 26.667,8L16,8L13.333,5.333Z" style="fill:rgb(225,225,225);fill-rule:nonzero;"/>
                </g>
                <g transform="matrix(1,0,0,1,36.899,272.816)">
                    <path d="M13.333,5.333L5.333,5.333C3.853,5.333 2.667,6.52 2.667,8L2.667,24C2.667,25.463 3.87,26.667 5.333,26.667L26.667,26.667C28.13,26.667 29.333,25.463 29.333,24L29.333,10.667C29.333,9.204 28.13,8 26.667,8L16,8L13.333,5.333Z" style="fill:rgb(225,225,225);fill-rule:nonzero;"/>
                </g>
                <g transform="matrix(1,0,0,1,36.899,308.978)">
                    <path d="M13.333,5.333L5.333,5.333C3.853,5.333 2.667,6.52 2.667,8L2.667,24C2.667,25.463 3.87,26.667 5.333,26.667L26.667,26.667C28.13,26.667 29.333,25.463 29.333,24L29.333,10.667C29.333,9.204 28.13,8 26.667,8L16,8L13.333,5.333Z" style="fill:rgb(225,225,225);fill-rule:nonzero;"/>
                </g>
                <g transform="matrix(1,0,0,1,54.8088,345.14)">
                    <path d="M13.333,5.333L5.333,5.333C3.853,5.333 2.667,6.52 2.667,8L2.667,24C2.667,25.463 3.87,26.667 5.333,26.667L26.667,26.667C28.13,26.667 29.333,25.463 29.333,24L29.333,10.667C29.333,9.204 28.13,8 26.667,8L16,8L13.333,5.333Z" style="fill:rgb(225,225,225);fill-rule:nonzero;"/>
                </g>
                <g transform="matrix(1,0,0,1,36.899,489.786)">
                    <path d="M13.333,5.333L5.333,5.333C3.853,5.333 2.667,6.52 2.667,8L2.667,24C2.667,25.463 3.87,26.667 5.333,26.667L26.667,26.667C28.13,26.667 29.333,25.463 29.333,24L29.333,10.667C29.333,9.204 28.13,8 26.667,8L16,8L13.333,5.333Z" style="fill:rgb(225,225,225);fill-rule:nonzero;"/>
                </g>
                <g transform="matrix(1,0,0,1,-107.428,0)">
                    <path d="M339,144.169C339,150.056 334.22,154.836 328.333,154.836L196.667,154.836C190.78,154.836 186,150.056 186,144.169C186,138.282 190.78,133.503 196.667,133.503L328.333,133.503C334.22,133.503 339,138.282 339,144.169Z" style="fill:rgb(225,225,225);"/>
                </g>
                <g transform="matrix(0.79085,0,0,1,-68.5263,36.1617)">
                    <path d="M339,144.169C339,150.056 332.956,154.836 325.512,154.836L199.488,154.836C192.044,154.836 186,150.056 186,144.169C186,138.282 192.044,133.503 199.488,133.503L325.512,133.503C332.956,133.503 339,138.282 339,144.169Z" style="fill:rgb(225,225,225);"/>
                </g>
                <g transform="matrix(0.941176,0,0,1,-96.4871,72.3234)">
                    <path d="M339,144.169C339,150.056 333.922,154.836 327.667,154.836L197.333,154.836C191.078,154.836 186,150.056 186,144.169C186,138.282 191.078,133.503 197.333,133.503L327.667,133.503C333.922,133.503 339,138.282 339,144.169Z" style="fill:rgb(225,225,225);"/>
                </g>
                <g transform="matrix(1.16993,0,0,1,-139.036,108.485)">
                    <path d="M339,144.169C339,150.056 334.915,154.836 329.883,154.836L195.117,154.836C190.085,154.836 186,150.056 186,144.169C186,138.282 190.085,133.503 195.117,133.503L329.883,133.503C334.915,133.503 339,138.282 339,144.169Z" style="fill:rgb(225,225,225);"/>
                </g>
                <g transform="matrix(0.699346,0,0,1,-51.5067,144.647)">
                    <path d="M339,144.169C339,150.056 332.166,154.836 323.748,154.836L201.252,154.836C192.834,154.836 186,150.056 186,144.169C186,138.282 192.834,133.503 201.252,133.503L323.748,133.503C332.166,133.503 339,138.282 339,144.169Z" style="fill:rgb(225,225,225);"/>
                </g>
                <g transform="matrix(1,0,0,1,-107.428,180.809)">
                    <path d="M339,144.169C339,150.056 334.22,154.836 328.333,154.836L196.667,154.836C190.78,154.836 186,150.056 186,144.169C186,138.282 190.78,133.503 196.667,133.503L328.333,133.503C334.22,133.503 339,138.282 339,144.169Z" style="fill:rgb(225,225,225);"/>
                </g>
                <g transform="matrix(0.732026,0,0,1,-38.4889,216.97)">
                    <path d="M339,144.169C339,150.056 332.471,154.836 324.429,154.836L200.571,154.836C192.529,154.836 186,150.056 186,144.169C186,138.282 192.529,133.503 200.571,133.503L324.429,133.503C332.471,133.503 339,138.282 339,144.169Z" style="fill:rgb(225,225,225);"/>
                </g>
                <g transform="matrix(1,0,0,1,-83.8999,253.132)">
                    <path d="M339,144.169C339,150.056 334.22,154.836 328.333,154.836L196.667,154.836C190.78,154.836 186,150.056 186,144.169C186,138.282 190.78,133.503 196.667,133.503L328.333,133.503C334.22,133.503 339,138.282 339,144.169Z" style="fill:rgb(225,225,225);"/>
                </g>
                <g transform="matrix(0.688979,0,0,0.688979,674.958,15.1388)">
                    <path d="M339,144.169C339,150.056 334.22,154.836 328.333,154.836L196.667,154.836C190.78,154.836 186,150.056 186,144.169C186,138.282 190.78,133.503 196.667,133.503L328.333,133.503C334.22,133.503 339,138.282 339,144.169Z" style="fill:rgb(225,225,225);"/>
                </g>
                <g transform="matrix(0.912208,0,0,1,-67.5705,289.294)">
                    <path d="M339,144.169C339,150.056 333.76,154.836 327.307,154.836L197.693,154.836C191.24,154.836 186,150.056 186,144.169C186,138.282 191.24,133.503 197.693,133.503L327.307,133.503C333.76,133.503 339,138.282 339,144.169Z" style="fill:rgb(225,225,225);"/>
                </g>
                <g transform="matrix(1.12418,0,0,1,-106.998,325.455)">
                    <path d="M339,144.169C339,150.056 334.748,154.836 329.512,154.836L195.488,154.836C190.252,154.836 186,150.056 186,144.169C186,138.282 190.252,133.503 195.488,133.503L329.512,133.503C334.748,133.503 339,138.282 339,144.169Z" style="fill:rgb(225,225,225);"/>
                </g>
                <g transform="matrix(1,0,0,1,292.049,-72.2953)">
                    <path d="M339,144.169C339,150.056 334.22,154.836 328.333,154.836L196.667,154.836C190.78,154.836 186,150.056 186,144.169C186,138.282 190.78,133.503 196.667,133.503L328.333,133.503C334.22,133.503 339,138.282 339,144.169Z" style="fill:rgb(143,174,218);"/>
                </g>
                <g transform="matrix(0.496732,0,0,1,634.72,-72.2953)">
                    <path d="M339,144.169C339,150.056 329.378,154.836 317.526,154.836L207.474,154.836C195.622,154.836 186,150.056 186,144.169C186,138.282 195.622,133.503 207.474,133.503L317.526,133.503C329.378,133.503 339,138.282 339,144.169Z" style="fill:rgb(225,225,225);"/>
                </g>
                <g transform="matrix(0.715872,0,0,1,-54.5805,361.617)">
                    <path d="M339,144.169C339,150.056 332.323,154.836 324.1,154.836L200.9,154.836C192.677,154.836 186,150.056 186,144.169C186,138.282 192.677,133.503 200.9,133.503L324.1,133.503C332.323,133.503 339,138.282 339,144.169Z" style="fill:rgb(225,225,225);"/>
                </g>
                <g transform="matrix(0.543896,0,0,1,-12.4967,397.779)">
                    <path d="M339,144.169C339,150.056 330.212,154.836 319.388,154.836L205.612,154.836C194.788,154.836 186,150.056 186,144.169C186,138.282 194.788,133.503 205.612,133.503L319.388,133.503C330.212,133.503 339,138.282 339,144.169Z" style="fill:rgb(225,225,225);"/>
                </g>
                <g transform="matrix(0.830065,0,0,1,-65.7242,433.941)">
                    <path d="M339,144.169C339,150.056 333.242,154.836 326.15,154.836L198.85,154.836C191.758,154.836 186,150.056 186,144.169C186,138.282 191.758,133.503 198.85,133.503L326.15,133.503C333.242,133.503 339,138.282 339,144.169Z" style="fill:rgb(225,225,225);"/>
                </g>
                <g transform="matrix(1.46405,0,0,1,-213.31,-40.5897)">
                    <rect x="186" y="133.503" width="153" height="21.333" style="fill:rgb(198,198,198);"/>
                </g>
                <g transform="matrix(1,0,0,1,-100.428,0)">
                    <path d="M124,100L134.365,110.365L145.235,99.495" style="fill:none;stroke:rgb(168,177,214);stroke-width:2px;"/>
                </g>
                <g transform="matrix(4.21878e-17,-0.688979,0.688979,4.21878e-17,446.339,208.113)">
                    <path d="M124,100L134.365,110.365L145.235,99.495" style="fill:none;stroke:rgb(225,225,225);stroke-width:2.9px;"/>
                </g>
                <g transform="matrix(4.21878e-17,-0.688979,0.688979,4.21878e-17,585.042,208.113)">
                    <path d="M124,100L134.365,110.365L145.235,99.495" style="fill:none;stroke:rgb(225,225,225);stroke-width:2.9px;"/>
                </g>
                <g transform="matrix(4.21878e-17,-0.688979,0.688979,4.21878e-17,692.686,208.113)">
                    <path d="M124,100L134.365,110.365L145.235,99.495" style="fill:none;stroke:rgb(225,225,225);stroke-width:2.9px;"/>
                </g>
                <g transform="matrix(1,0,0,1,475.688,367.968)">
                    <g transform="matrix(0.744186,0,0,0.744186,-406.338,17.4264)">
                        <path d="M27.667,8L27.667,28.533L27.63,28.896L27.523,29.235L27.357,29.54L27.138,29.805L26.874,30.024L26.569,30.19L26.23,30.296L25.867,30.333L6.133,30.333L5.77,30.296L5.431,30.19L5.126,30.024L4.862,29.805L4.643,29.54L4.477,29.235L4.37,28.896L4.354,28.737C4.341,28.671 4.333,28.603 4.333,28.533L4.333,3.467L4.37,3.104L4.477,2.765L4.643,2.46L4.862,2.195L5.126,1.976L5.431,1.81L5.77,1.704L6.133,1.667L21.67,1.667L22.023,1.702L22.359,1.804L22.668,1.97C22.668,1.97 22.941,2.194 22.942,2.194L27.139,6.391L27.364,6.666L27.53,6.977L27.632,7.315C27.632,7.315 27.666,7.664 27.667,7.667L27.667,8ZM20.333,3.667L6.333,3.667L6.333,28.333L25.667,28.333L25.667,9L22.133,9L21.77,8.963L21.431,8.857L21.126,8.69L20.862,8.472L20.643,8.207L20.477,7.902L20.37,7.563L20.333,7.2L20.333,3.667ZM24.919,7L22.333,4.414L22.333,7L24.919,7Z" style="fill:rgb(225,225,225);"/>
                    </g>
                    <g transform="matrix(0.512728,0,0,0.512728,304.856,-261.703)">
                        <path d="M27.667,8L27.667,28.533L27.63,28.896L27.523,29.235L27.357,29.54L27.138,29.805L26.874,30.024L26.569,30.19L26.23,30.296L25.867,30.333L6.133,30.333L5.77,30.296L5.431,30.19L5.126,30.024L4.862,29.805L4.643,29.54L4.477,29.235L4.37,28.896L4.354,28.737C4.341,28.671 4.333,28.603 4.333,28.533L4.333,3.467L4.37,3.104L4.477,2.765L4.643,2.46L4.862,2.195L5.126,1.976L5.431,1.81L5.77,1.704L6.133,1.667L21.67,1.667L22.023,1.702L22.359,1.804L22.668,1.97C22.668,1.97 22.941,2.194 22.942,2.194L27.139,6.391L27.364,6.666L27.53,6.977L27.632,7.315C27.632,7.315 27.666,7.664 27.667,7.667L27.667,8ZM20.333,3.667L6.333,3.667L6.333,28.333L25.667,28.333L25.667,9L22.133,9L21.77,8.963L21.431,8.857L21.126,8.69L20.862,8.472L20.643,8.207L20.477,7.902L20.37,7.563L20.333,7.2L20.333,3.667ZM24.919,7L22.333,4.414L22.333,7L24.919,7Z" style="fill:rgb(225,225,225);"/>
                    </g>
                    <g transform="matrix(0.744186,0,0,0.744186,-421.012,161.602)">
                        <path d="M27.667,8L27.667,28.533L27.63,28.896L27.523,29.235L27.357,29.54L27.138,29.805L26.874,30.024L26.569,30.19L26.23,30.296L25.867,30.333L6.133,30.333L5.77,30.296L5.431,30.19L5.126,30.024L4.862,29.805L4.643,29.54L4.477,29.235L4.37,28.896L4.354,28.737C4.341,28.671 4.333,28.603 4.333,28.533L4.333,3.467L4.37,3.104L4.477,2.765L4.643,2.46L4.862,2.195L5.126,1.976L5.431,1.81L5.77,1.704L6.133,1.667L21.67,1.667L22.023,1.702L22.359,1.804L22.668,1.97C22.668,1.97 22.941,2.194 22.942,2.194L27.139,6.391L27.364,6.666L27.53,6.977L27.632,7.315C27.632,7.315 27.666,7.664 27.667,7.667L27.667,8ZM20.333,3.667L6.333,3.667L6.333,28.333L25.667,28.333L25.667,9L22.133,9L21.77,8.963L21.431,8.857L21.126,8.69L20.862,8.472L20.643,8.207L20.477,7.902L20.37,7.563L20.333,7.2L20.333,3.667ZM24.919,7L22.333,4.414L22.333,7L24.919,7Z" style="fill:rgb(225,225,225);"/>
                    </g>
                    <g transform="matrix(0.744186,0,0,0.744186,-406.338,53.797)">
                        <path d="M27.667,8L27.667,28.533L27.63,28.896L27.523,29.235L27.357,29.54L27.138,29.805L26.874,30.024L26.569,30.19L26.23,30.296L25.867,30.333L6.133,30.333L5.77,30.296L5.431,30.19L5.126,30.024L4.862,29.805L4.643,29.54L4.477,29.235L4.37,28.896L4.354,28.737C4.341,28.671 4.333,28.603 4.333,28.533L4.333,3.467L4.37,3.104L4.477,2.765L4.643,2.46L4.862,2.195L5.126,1.976L5.431,1.81L5.77,1.704L6.133,1.667L21.67,1.667L22.023,1.702L22.359,1.804L22.668,1.97C22.668,1.97 22.941,2.194 22.942,2.194L27.139,6.391L27.364,6.666L27.53,6.977L27.632,7.315C27.632,7.315 27.666,7.664 27.667,7.667L27.667,8ZM20.333,3.667L6.333,3.667L6.333,28.333L25.667,28.333L25.667,9L22.133,9L21.77,8.963L21.431,8.857L21.126,8.69L20.862,8.472L20.643,8.207L20.477,7.902L20.37,7.563L20.333,7.2L20.333,3.667ZM24.919,7L22.333,4.414L22.333,7L24.919,7Z" style="fill:rgb(225,225,225);"/>
                    </g>
                    <g transform="matrix(0.744186,0,0,0.744186,-421.012,197.972)">
                        <path d="M27.667,8L27.667,28.533L27.63,28.896L27.523,29.235L27.357,29.54L27.138,29.805L26.874,30.024L26.569,30.19L26.23,30.296L25.867,30.333L6.133,30.333L5.77,30.296L5.431,30.19L5.126,30.024L4.862,29.805L4.643,29.54L4.477,29.235L4.37,28.896L4.354,28.737C4.341,28.671 4.333,28.603 4.333,28.533L4.333,3.467L4.37,3.104L4.477,2.765L4.643,2.46L4.862,2.195L5.126,1.976L5.431,1.81L5.77,1.704L6.133,1.667L21.67,1.667L22.023,1.702L22.359,1.804L22.668,1.97C22.668,1.97 22.941,2.194 22.942,2.194L27.139,6.391L27.364,6.666L27.53,6.977L27.632,7.315C27.632,7.315 27.666,7.664 27.667,7.667L27.667,8ZM20.333,3.667L6.333,3.667L6.333,28.333L25.667,28.333L25.667,9L22.133,9L21.77,8.963L21.431,8.857L21.126,8.69L20.862,8.472L20.643,8.207L20.477,7.902L20.37,7.563L20.333,7.2L20.333,3.667ZM24.919,7L22.333,4.414L22.333,7L24.919,7Z" style="fill:rgb(225,225,225);"/>
                    </g>
                    <g transform="matrix(0.744186,0,0,0.744186,-406.338,90.1676)">
                        <path d="M27.667,8L27.667,28.533L27.63,28.896L27.523,29.235L27.357,29.54L27.138,29.805L26.874,30.024L26.569,30.19L26.23,30.296L25.867,30.333L6.133,30.333L5.77,30.296L5.431,30.19L5.126,30.024L4.862,29.805L4.643,29.54L4.477,29.235L4.37,28.896L4.354,28.737C4.341,28.671 4.333,28.603 4.333,28.533L4.333,3.467L4.37,3.104L4.477,2.765L4.643,2.46L4.862,2.195L5.126,1.976L5.431,1.81L5.77,1.704L6.133,1.667L21.67,1.667L22.023,1.702L22.359,1.804L22.668,1.97C22.668,1.97 22.941,2.194 22.942,2.194L27.139,6.391L27.364,6.666L27.53,6.977L27.632,7.315C27.632,7.315 27.666,7.664 27.667,7.667L27.667,8ZM20.333,3.667L6.333,3.667L6.333,28.333L25.667,28.333L25.667,9L22.133,9L21.77,8.963L21.431,8.857L21.126,8.69L20.862,8.472L20.643,8.207L20.477,7.902L20.37,7.563L20.333,7.2L20.333,3.667ZM24.919,7L22.333,4.414L22.333,7L24.919,7Z" style="fill:rgb(225,225,225);"/>
                    </g>
                    <g transform="matrix(0.744186,0,0,0.744186,-33.3889,-307.583)">
                        <path d="M27.667,8L27.667,28.533L27.63,28.896L27.523,29.235L27.357,29.54L27.138,29.805L26.874,30.024L26.569,30.19L26.23,30.296L25.867,30.333L6.133,30.333L5.77,30.296L5.431,30.19L5.126,30.024L4.862,29.805L4.643,29.54L4.477,29.235L4.37,28.896L4.354,28.737C4.341,28.671 4.333,28.603 4.333,28.533L4.333,3.467L4.37,3.104L4.477,2.765L4.643,2.46L4.862,2.195L5.126,1.976L5.431,1.81L5.77,1.704L6.133,1.667L21.67,1.667L22.023,1.702L22.359,1.804L22.668,1.97C22.668,1.97 22.941,2.194 22.942,2.194L27.139,6.391L27.364,6.666L27.53,6.977L27.632,7.315C27.632,7.315 27.666,7.664 27.667,7.667L27.667,8ZM20.333,3.667L6.333,3.667L6.333,28.333L25.667,28.333L25.667,9L22.133,9L21.77,8.963L21.431,8.857L21.126,8.69L20.862,8.472L20.643,8.207L20.477,7.902L20.37,7.563L20.333,7.2L20.333,3.667ZM24.919,7L22.333,4.414L22.333,7L24.919,7Z" style="fill:rgb(225,225,225);"/>
                    </g>
                    <g transform="matrix(0.744186,0,0,0.744186,215.674,-307.583)">
                        <path d="M27.667,8L27.667,28.533L27.63,28.896L27.523,29.235L27.357,29.54L27.138,29.805L26.874,30.024L26.569,30.19L26.23,30.296L25.867,30.333L6.133,30.333L5.77,30.296L5.431,30.19L5.126,30.024L4.862,29.805L4.643,29.54L4.477,29.235L4.37,28.896L4.354,28.737C4.341,28.671 4.333,28.603 4.333,28.533L4.333,3.467L4.37,3.104L4.477,2.765L4.643,2.46L4.862,2.195L5.126,1.976L5.431,1.81L5.77,1.704L6.133,1.667L21.67,1.667L22.023,1.702L22.359,1.804L22.668,1.97C22.668,1.97 22.941,2.194 22.942,2.194L27.139,6.391L27.364,6.666L27.53,6.977L27.632,7.315C27.632,7.315 27.666,7.664 27.667,7.667L27.667,8ZM20.333,3.667L6.333,3.667L6.333,28.333L25.667,28.333L25.667,9L22.133,9L21.77,8.963L21.431,8.857L21.126,8.69L20.862,8.472L20.643,8.207L20.477,7.902L20.37,7.563L20.333,7.2L20.333,3.667ZM24.919,7L22.333,4.414L22.333,7L24.919,7Z" style="fill:rgb(225,225,225);"/>
                    </g>
                </g>
                <g transform="matrix(1.0221,0,0,1,-42.4391,0)">
                    <rect x="458" y="135" width="1462" height="945" style="fill:rgb(245,245,245);stroke:rgb(245,245,245);stroke-width:1.98px;"/>
                </g>
                <g transform="matrix(11.8571,0,0,1,-6802.38,0)">
                    <path d="M626,165.918C626,172.034 625.581,177 625.065,177L619.935,177C619.419,177 619,172.034 619,165.918C619,159.802 619.419,154.836 619.935,154.836L625.065,154.836C625.581,154.836 626,159.802 626,165.918Z" style="fill:rgb(125,207,255);"/>
                </g>
                <g transform="matrix(11.8571,0,0,1,-6709.38,0)">
                    <path d="M626,165.918C626,172.034 625.581,177 625.065,177L619.935,177C619.419,177 619,172.034 619,165.918C619,159.802 619.419,154.836 619.935,154.836L625.065,154.836C625.581,154.836 626,159.802 626,165.918Z" style="fill:rgb(187,154,247);"/>
                </g>
                <g transform="matrix(11.8571,0,0,1,-6564.38,0)">
                    <path d="M626,165.918C626,172.034 625.581,177 625.065,177L619.935,177C619.419,177 619,172.034 619,165.918C619,159.802 619.419,154.836 619.935,154.836L625.065,154.836C625.581,154.836 626,159.802 626,165.918Z" style="fill:rgb(187,154,247);"/>
                </g>
                <g transform="matrix(22,0,0,1,-12749.8,0)">
                    <path d="M626,165.918C626,172.034 625.774,177 625.496,177L619.504,177C619.226,177 619,172.034 619,165.918C619,159.802 619.226,154.836 619.504,154.836L625.496,154.836C625.774,154.836 626,159.802 626,165.918Z" style="fill:rgb(122,162,247);"/>
                </g>
                <g transform="matrix(4.57143,0,0,1,-1728.52,0)">
                    <path d="M626,165.918C626,172.034 624.914,177 623.576,177L621.424,177C620.086,177 619,172.034 619,165.918C619,159.802 620.086,154.836 621.424,154.836L623.576,154.836C624.914,154.836 626,159.802 626,165.918Z" style="fill:rgb(122,162,247);"/>
                </g>
                <g transform="matrix(8.42857,0,0,1,-4185.09,0)">
                    <path d="M626,165.918C626,172.034 625.411,177 624.685,177L620.315,177C619.589,177 619,172.034 619,165.918C619,159.802 619.589,154.836 620.315,154.836L624.685,154.836C625.411,154.836 626,159.802 626,165.918Z" style="fill:rgb(158,206,106);"/>
                </g>
                <g transform="matrix(6,0,0,1,-2990.81,0)">
                    <path d="M626,165.918C626,172.034 625.172,177 624.153,177L620.847,177C619.828,177 619,172.034 619,165.918C619,159.802 619.828,154.836 620.847,154.836L624.153,154.836C625.172,154.836 626,159.802 626,165.918Z" style="fill:rgb(216,219,232);"/>
                </g>
                <g transform="matrix(4.71429,0,0,1,-2355.95,31.7141)">
                    <path d="M626,165.918C626,172.034 624.947,177 623.649,177L621.351,177C620.053,177 619,172.034 619,165.918C619,159.802 620.053,154.836 621.351,154.836L623.649,154.836C624.947,154.836 626,159.802 626,165.918Z" style="fill:rgb(125,207,255);"/>
                </g>
                <g transform="matrix(21,0,0,1,-12393.8,31.7141)">
                    <path d="M626,165.918C626,172.034 625.764,177 625.472,177L619.528,177C619.236,177 619,172.034 619,165.918C619,159.802 619.236,154.836 619.528,154.836L625.472,154.836C625.764,154.836 626,159.802 626,165.918Z" style="fill:rgb(122,162,247);"/>
                </g>
                <g transform="matrix(3.57143,0,0,1,-1298.43,31.7141)">
                    <path d="M626,165.918C626,172.034 624.61,177 622.897,177L622.103,177C620.39,177 619,172.034 619,165.918C619,159.802 620.39,154.836 622.103,154.836L622.897,154.836C624.61,154.836 626,159.802 626,165.918Z" style="fill:rgb(122,162,247);"/>
                </g>
                <g transform="matrix(22,0,0,1,-12670.7,31.7141)">
                    <path d="M626,165.918C626,172.034 625.774,177 625.496,177L619.504,177C619.226,177 619,172.034 619,165.918C619,159.802 619.226,154.836 619.504,154.836L625.496,154.836C625.774,154.836 626,159.802 626,165.918Z" style="fill:rgb(111,211,196);"/>
                </g>
                <g transform="matrix(20.2857,0,0,1,-11445.6,31.7141)">
                    <path d="M626,165.918C626,172.034 625.755,177 625.454,177L619.546,177C619.245,177 619,172.034 619,165.918C619,159.802 619.245,154.836 619.546,154.836L625.454,154.836C625.755,154.836 626,159.802 626,165.918Z" style="fill:rgb(216,219,232);"/>
                </g>
                <g transform="matrix(20.0131,0,0,1,-11625.9,31.7141)">
                    <path d="M626,165.918C626,172.034 625.752,177 625.446,177L619.554,177C619.248,177 619,172.034 619,165.918C619,159.802 619.248,154.836 619.554,154.836L625.446,154.836C625.752,154.836 626,159.802 626,165.918Z" style="fill:rgb(216,219,232);"/>
                </g>
                <g transform="matrix(4.71429,0,0,1,-2355.95,95.1424)">
                    <path d="M626,165.918C626,172.034 624.947,177 623.649,177L621.351,177C620.053,177 619,172.034 619,165.918C619,159.802 620.053,154.836 621.351,154.836L623.649,154.836C624.947,154.836 626,159.802 626,165.918Z" style="fill:rgb(125,207,255);"/>
                </g>
                <g transform="matrix(10.2857,0,0,1,-5761.66,95.1424)">
                    <path d="M626,165.918C626,172.034 625.517,177 624.923,177L620.077,177C619.483,177 619,172.034 619,165.918C619,159.802 619.483,154.836 620.077,154.836L624.923,154.836C625.517,154.836 626,159.802 626,165.918Z" style="fill:rgb(122,162,247);"/>
                </g>
                <g transform="matrix(5.28571,0,0,1,-2532.66,95.1424)">
                    <path d="M626,165.918C626,172.034 625.061,177 623.903,177L621.097,177C619.939,177 619,172.034 619,165.918C619,159.802 619.939,154.836 621.097,154.836L623.903,154.836C625.061,154.836 626,159.802 626,165.918Z" style="fill:rgb(122,162,247);"/>
                </g>
                <g transform="matrix(6,0,0,1,-3026.81,95.1424)">
                    <path d="M626,165.918C626,172.034 625.172,177 624.153,177L620.847,177C619.828,177 619,172.034 619,165.918C619,159.802 619.828,154.836 620.847,154.836L624.153,154.836C625.172,154.836 626,159.802 626,165.918Z" style="fill:rgb(111,211,196);"/>
                </g>
                <g transform="matrix(5.92857,0,0,1,-3107.59,126.857)">
                    <path d="M626,165.918C626,172.034 625.162,177 624.131,177L620.869,177C619.838,177 619,172.034 619,165.918C619,159.802 619.838,154.836 620.869,154.836L624.131,154.836C625.162,154.836 626,159.802 626,165.918Z" style="fill:rgb(225,225,225);"/>
                </g>
                <g transform="matrix(4.64286,0,0,1,-2279.23,158.571)">
                    <path d="M626,165.918C626,172.034 624.93,177 623.613,177L621.387,177C620.07,177 619,172.034 619,165.918C619,159.802 620.07,154.836 621.387,154.836L623.613,154.836C624.93,154.836 626,159.802 626,165.918Z" style="fill:rgb(225,225,225);"/>
                </g>
                <g transform="matrix(80.5714,0,0,1,-49236.5,158.571)">
                    <path d="M626,165.918C626,172.034 625.938,177 625.862,177L619.138,177C619.062,177 619,172.034 619,165.918C619,159.802 619.062,154.836 619.138,154.836L625.862,154.836C625.938,154.836 626,159.802 626,165.918Z" style="fill:rgb(225,225,225);"/>
                </g>
                <g transform="matrix(4.64286,0,0,1,-2311.73,190.285)">
                    <path d="M626,165.918C626,172.034 624.93,177 623.613,177L621.387,177C620.07,177 619,172.034 619,165.918C619,159.802 620.07,154.836 621.387,154.836L623.613,154.836C624.93,154.836 626,159.802 626,165.918Z" style="fill:rgb(225,225,225);"/>
                </g>
                <g transform="matrix(11.8571,0,0,1,-6777.38,221.999)">
                    <path d="M626,165.918C626,172.034 625.581,177 625.065,177L619.935,177C619.419,177 619,172.034 619,165.918C619,159.802 619.419,154.836 619.935,154.836L625.065,154.836C625.581,154.836 626,159.802 626,165.918Z" style="fill:rgb(187,154,247);"/>
                </g>
                <g transform="matrix(11.8571,0,0,1,-6777.38,857.289)">
                    <path d="M626,165.918C626,172.034 625.581,177 625.065,177L619.935,177C619.419,177 619,172.034 619,165.918C619,159.802 619.419,154.836 619.935,154.836L625.065,154.836C625.581,154.836 626,159.802 626,165.918Z" style="fill:rgb(187,154,247);"/>
                </g>
                <g transform="matrix(26.16,0,0,1,-15537.8,221.999)">
                    <path d="M626,165.918C626,172.034 625.81,177 625.576,177L619.424,177C619.19,177 619,172.034 619,165.918C619,159.802 619.19,154.836 619.424,154.836L625.576,154.836C625.81,154.836 626,159.802 626,165.918Z" style="fill:rgb(122,162,247);"/>
                </g>
                <g transform="matrix(26.16,0,0,1,-15537.8,857.289)">
                    <path d="M626,165.918C626,172.034 625.81,177 625.576,177L619.424,177C619.19,177 619,172.034 619,165.918C619,159.802 619.19,154.836 619.424,154.836L625.576,154.836C625.81,154.836 626,159.802 626,165.918Z" style="fill:rgb(122,162,247);"/>
                </g>
                <g transform="matrix(11.8571,0,0,1,-6454.26,221.999)">
                    <path d="M626,165.918C626,172.034 625.581,177 625.065,177L619.935,177C619.419,177 619,172.034 619,165.918C619,159.802 619.419,154.836 619.935,154.836L625.065,154.836C625.581,154.836 626,159.802 626,165.918Z" style="fill:rgb(224,175,103);"/>
                </g>
                <g transform="matrix(11.8571,0,0,1,-6454.26,857.289)">
                    <path d="M626,165.918C626,172.034 625.581,177 625.065,177L619.935,177C619.419,177 619,172.034 619,165.918C619,159.802 619.419,154.836 619.935,154.836L625.065,154.836C625.581,154.836 626,159.802 626,165.918Z" style="fill:rgb(224,175,103);"/>
                </g>
                <g transform="matrix(11.8571,0,0,1,-6077.26,221.999)">
                    <path d="M626,165.918C626,172.034 625.581,177 625.065,177L619.935,177C619.419,177 619,172.034 619,165.918C619,159.802 619.419,154.836 619.935,154.836L625.065,154.836C625.581,154.836 626,159.802 626,165.918Z" style="fill:rgb(224,175,103);"/>
                </g>
                <g transform="matrix(11.8571,0,0,1,-5984.26,221.999)">
                    <path d="M626,165.918C626,172.034 625.581,177 625.065,177L619.935,177C619.419,177 619,172.034 619,165.918C619,159.802 619.419,154.836 619.935,154.836L625.065,154.836C625.581,154.836 626,159.802 626,165.918Z" style="fill:rgb(216,219,232);"/>
                </g>
                <g transform="matrix(22,0,0,1,-12639.7,221.999)">
                    <path d="M626,165.918C626,172.034 625.774,177 625.496,177L619.504,177C619.226,177 619,172.034 619,165.918C619,159.802 619.226,154.836 619.504,154.836L625.496,154.836C625.774,154.836 626,159.802 626,165.918Z" style="fill:rgb(11,185,215);"/>
                </g>
                <g transform="matrix(22,0,0,1,-12639.7,857.289)">
                    <path d="M626,165.918C626,172.034 625.774,177 625.496,177L619.504,177C619.226,177 619,172.034 619,165.918C619,159.802 619.226,154.836 619.504,154.836L625.496,154.836C625.774,154.836 626,159.802 626,165.918Z" style="fill:rgb(11,185,215);"/>
                </g>
                <g transform="matrix(4.57143,0,0,1,-1381.4,221.999)">
                    <path d="M626,165.918C626,172.034 624.914,177 623.576,177L621.424,177C620.086,177 619,172.034 619,165.918C619,159.802 620.086,154.836 621.424,154.836L623.576,154.836C624.914,154.836 626,159.802 626,165.918Z" style="fill:rgb(122,162,247);"/>
                </g>
                <g transform="matrix(15.7143,0,0,1,-8584.83,221.999)">
                    <path d="M626,165.918C626,172.034 625.684,177 625.295,177L619.705,177C619.316,177 619,172.034 619,165.918C619,159.802 619.316,154.836 619.705,154.836L625.295,154.836C625.684,154.836 626,159.802 626,165.918Z" style="fill:rgb(122,162,247);"/>
                </g>
                <g transform="matrix(3.71429,0,0,1,-1156.83,857.289)">
                    <path d="M626,165.918C626,172.034 624.663,177 623.016,177L621.984,177C620.337,177 619,172.034 619,165.918C619,159.802 620.337,154.836 621.984,154.836L623.016,154.836C624.663,154.836 626,159.802 626,165.918Z" style="fill:rgb(122,162,247);"/>
                </g>
                <g transform="matrix(3.85714,0,0,1,-1539.26,221.999)">
                    <path d="M626,165.918C626,172.034 624.713,177 623.127,177L621.873,177C620.287,177 619,172.034 619,165.918C619,159.802 620.287,154.836 621.873,154.836L623.127,154.836C624.713,154.836 626,159.802 626,165.918Z" style="fill:rgb(187,154,247);"/>
                </g>
                <g transform="matrix(3.85714,0,0,1,-1539.26,857.289)">
                    <path d="M626,165.918C626,172.034 624.713,177 623.127,177L621.873,177C620.287,177 619,172.034 619,165.918C619,159.802 620.287,154.836 621.873,154.836L623.127,154.836C624.713,154.836 626,159.802 626,165.918Z" style="fill:rgb(187,154,247);"/>
                </g>
                <g transform="matrix(34.4102,0,0,1,-20702.8,253.713)">
                    <path d="M626,165.918C626,172.034 625.856,177 625.678,177L619.322,177C619.144,177 619,172.034 619,165.918C619,159.802 619.144,154.836 619.322,154.836L625.678,154.836C625.856,154.836 626,159.802 626,165.918Z" style="fill:rgb(187,154,247);"/>
                </g>
                <g transform="matrix(34.4102,0,0,1,-20702.8,889.003)">
                    <path d="M626,165.918C626,172.034 625.856,177 625.678,177L619.322,177C619.144,177 619,172.034 619,165.918C619,159.802 619.144,154.836 619.322,154.836L625.678,154.836C625.856,154.836 626,159.802 626,165.918Z" style="fill:rgb(187,154,247);"/>
                </g>
                <g transform="matrix(26.5714,0,0,1,-15599.8,253.713)">
                    <path d="M626,165.918C626,172.034 625.813,177 625.583,177L619.417,177C619.187,177 619,172.034 619,165.918C619,159.802 619.187,154.836 619.417,154.836L625.583,154.836C625.813,154.836 626,159.802 626,165.918Z" style="fill:rgb(122,162,247);"/>
                </g>
                <g transform="matrix(26.5714,0,0,1,-15599.8,889.003)">
                    <path d="M626,165.918C626,172.034 625.813,177 625.583,177L619.417,177C619.187,177 619,172.034 619,165.918C619,159.802 619.187,154.836 619.417,154.836L625.583,154.836C625.813,154.836 626,159.802 626,165.918Z" style="fill:rgb(122,162,247);"/>
                </g>
                <g transform="matrix(13.7143,0,0,1,-7445.2,253.713)">
                    <path d="M626,165.918C626,172.034 625.638,177 625.192,177L619.808,177C619.362,177 619,172.034 619,165.918C619,159.802 619.362,154.836 619.808,154.836L625.192,154.836C625.638,154.836 626,159.802 626,165.918Z" style="fill:rgb(216,219,232);"/>
                </g>
                <g transform="matrix(13.7143,0,0,1,-7445.2,889.003)">
                    <path d="M626,165.918C626,172.034 625.638,177 625.192,177L619.808,177C619.362,177 619,172.034 619,165.918C619,159.802 619.362,154.836 619.808,154.836L625.192,154.836C625.638,154.836 626,159.802 626,165.918Z" style="fill:rgb(216,219,232);"/>
                </g>
                <g transform="matrix(5.71429,0,0,1,-2387.2,889.003)">
                    <path d="M626,165.918C626,172.034 625.131,177 624.061,177L620.939,177C619.869,177 619,172.034 619,165.918C619,159.802 619.869,154.836 620.939,154.836L624.061,154.836C625.131,154.836 626,159.802 626,165.918Z" style="fill:rgb(111,211,196);"/>
                </g>
                <g transform="matrix(5.71429,0,0,1,-2250.2,889.003)">
                    <path d="M626,165.918C626,172.034 625.131,177 624.061,177L620.939,177C619.869,177 619,172.034 619,165.918C619,159.802 619.869,154.836 620.939,154.836L624.061,154.836C625.131,154.836 626,159.802 626,165.918Z" style="fill:rgb(187,154,247);"/>
                </g>
                <g transform="matrix(11,0,0,1,-5609.06,889.003)">
                    <path d="M626,165.918C626,172.034 625.549,177 624.993,177L620.007,177C619.451,177 619,172.034 619,165.918C619,159.802 619.451,154.836 620.007,154.836L624.993,154.836C625.549,154.836 626,159.802 626,165.918Z" style="fill:rgb(158,206,106);"/>
                </g>
                <g transform="matrix(11.8571,0,0,1,-6711.02,285.427)">
                    <path d="M626,165.918C626,172.034 625.581,177 625.065,177L619.935,177C619.419,177 619,172.034 619,165.918C619,159.802 619.419,154.836 619.935,154.836L625.065,154.836C625.581,154.836 626,159.802 626,165.918Z" style="fill:rgb(111,211,196);"/>
                </g>
                <g transform="matrix(11.8571,0,0,1,-6618.02,285.427)">
                    <path d="M626,165.918C626,172.034 625.581,177 625.065,177L619.935,177C619.419,177 619,172.034 619,165.918C619,159.802 619.419,154.836 619.935,154.836L625.065,154.836C625.581,154.836 626,159.802 626,165.918Z" style="fill:rgb(158,206,106);"/>
                </g>
                <g transform="matrix(23.5714,0,0,1,-13962.2,317.141)">
                    <path d="M626,165.918C626,172.034 625.789,177 625.53,177L619.47,177C619.211,177 619,172.034 619,165.918C619,159.802 619.211,154.836 619.47,154.836L625.53,154.836C625.789,154.836 626,159.802 626,165.918Z" style="fill:rgb(111,211,196);"/>
                </g>
                <g transform="matrix(11.8571,0,0,1,-6536.02,317.141)">
                    <path d="M626,165.918C626,172.034 625.581,177 625.065,177L619.935,177C619.419,177 619,172.034 619,165.918C619,159.802 619.419,154.836 619.935,154.836L625.065,154.836C625.581,154.836 626,159.802 626,165.918Z" style="fill:rgb(158,206,106);"/>
                </g>
                <g transform="matrix(4.19411,0,0,1,-1996.96,348.856)">
                    <path d="M626,165.918C626,172.034 624.816,177 623.358,177L621.642,177C620.184,177 619,172.034 619,165.918C619,159.802 620.184,154.836 621.642,154.836L623.358,154.836C624.816,154.836 626,159.802 626,165.918Z" style="fill:rgb(187,154,247);"/>
                </g>
                <g transform="matrix(11.8571,0,0,1,-6740.38,412.284)">
                    <path d="M626,165.918C626,172.034 625.581,177 625.065,177L619.935,177C619.419,177 619,172.034 619,165.918C619,159.802 619.419,154.836 619.935,154.836L625.065,154.836C625.581,154.836 626,159.802 626,165.918Z" style="fill:rgb(122,162,247);"/>
                </g>
                <g transform="matrix(11.8571,0,0,1,-6647.38,412.284)">
                    <path d="M626,165.918C626,172.034 625.581,177 625.065,177L619.935,177C619.419,177 619,172.034 619,165.918C619,159.802 619.419,154.836 619.935,154.836L625.065,154.836C625.581,154.836 626,159.802 626,165.918Z" style="fill:rgb(216,219,232);"/>
                </g>
                <g transform="matrix(4.42857,0,0,1,-1864.09,412.284)">
                    <path d="M626,165.918C626,172.034 624.879,177 623.498,177L621.502,177C620.121,177 619,172.034 619,165.918C619,159.802 620.121,154.836 621.502,154.836L623.498,154.836C624.879,154.836 626,159.802 626,165.918Z" style="fill:rgb(224,175,103);"/>
                </g>
                <g transform="matrix(7.28571,0,0,1,-3591.66,412.284)">
                    <path d="M626,165.918C626,172.034 625.318,177 624.479,177L620.521,177C619.682,177 619,172.034 619,165.918C619,159.802 619.682,154.836 620.521,154.836L624.479,154.836C625.318,154.836 626,159.802 626,165.918Z" style="fill:rgb(224,175,103);"/>
                </g>
                <g transform="matrix(4.57143,0,0,1,-1571.52,412.284)">
                    <path d="M626,165.918C626,172.034 624.914,177 623.576,177L621.424,177C620.086,177 619,172.034 619,165.918C619,159.802 620.086,154.836 621.424,154.836L623.576,154.836C624.914,154.836 626,159.802 626,165.918Z" style="fill:rgb(187,154,247);"/>
                </g>
                <g transform="matrix(38.4286,0,0,1,-22808.1,412.284)">
                    <path d="M626,165.918C626,172.034 625.871,177 625.712,177L619.288,177C619.129,177 619,172.034 619,165.918C619,159.802 619.129,154.836 619.288,154.836L625.712,154.836C625.871,154.836 626,159.802 626,165.918Z" style="fill:rgb(158,206,106);"/>
                </g>
                <g transform="matrix(11.7143,0,0,1,-6465.95,412.284)">
                    <path d="M626,165.918C626,172.034 625.576,177 625.054,177L619.946,177C619.424,177 619,172.034 619,165.918C619,159.802 619.424,154.836 619.946,154.836L625.054,154.836C625.576,154.836 626,159.802 626,165.918Z" style="fill:rgb(125,207,255);"/>
                </g>
                <g transform="matrix(11.8571,0,0,1,-6740.38,443.998)">
                    <path d="M626,165.918C626,172.034 625.581,177 625.065,177L619.935,177C619.419,177 619,172.034 619,165.918C619,159.802 619.419,154.836 619.935,154.836L625.065,154.836C625.581,154.836 626,159.802 626,165.918Z" style="fill:rgb(122,162,247);"/>
                </g>
                <g transform="matrix(24.1469,0,0,1,-14254.7,443.998)">
                    <path d="M626,165.918C626,172.034 625.794,177 625.541,177L619.459,177C619.206,177 619,172.034 619,165.918C619,159.802 619.206,154.836 619.459,154.836L625.541,154.836C625.794,154.836 626,159.802 626,165.918Z" style="fill:rgb(216,219,232);"/>
                </g>
                <g transform="matrix(4.42857,0,0,1,-1778.06,443.998)">
                    <path d="M626,165.918C626,172.034 624.879,177 623.498,177L621.502,177C620.121,177 619,172.034 619,165.918C619,159.802 620.121,154.836 621.502,154.836L623.498,154.836C624.879,154.836 626,159.802 626,165.918Z" style="fill:rgb(224,175,103);"/>
                </g>
                <g transform="matrix(7.28571,0,0,1,-3505.64,443.998)">
                    <path d="M626,165.918C626,172.034 625.318,177 624.479,177L620.521,177C619.682,177 619,172.034 619,165.918C619,159.802 619.682,154.836 620.521,154.836L624.479,154.836C625.318,154.836 626,159.802 626,165.918Z" style="fill:rgb(224,175,103);"/>
                </g>
                <g transform="matrix(4.57143,0,0,1,-1483.49,443.998)">
                    <path d="M626,165.918C626,172.034 624.914,177 623.576,177L621.424,177C620.086,177 619,172.034 619,165.918C619,159.802 620.086,154.836 621.424,154.836L623.576,154.836C624.914,154.836 626,159.802 626,165.918Z" style="fill:rgb(187,154,247);"/>
                </g>
                <g transform="matrix(38.7143,0,0,1,-22898.9,443.998)">
                    <path d="M626,165.918C626,172.034 625.872,177 625.714,177L619.286,177C619.128,177 619,172.034 619,165.918C619,159.802 619.128,154.836 619.286,154.836L625.714,154.836C625.872,154.836 626,159.802 626,165.918Z" style="fill:rgb(158,206,106);"/>
                </g>
                <g transform="matrix(11.7143,0,0,1,-6379.92,443.998)">
                    <path d="M626,165.918C626,172.034 625.576,177 625.054,177L619.946,177C619.424,177 619,172.034 619,165.918C619,159.802 619.424,154.836 619.946,154.836L625.054,154.836C625.576,154.836 626,159.802 626,165.918Z" style="fill:rgb(125,207,255);"/>
                </g>
                <g transform="matrix(11.8571,0,0,1,-6740.38,507.426)">
                    <path d="M626,165.918C626,172.034 625.581,177 625.065,177L619.935,177C619.419,177 619,172.034 619,165.918C619,159.802 619.419,154.836 619.935,154.836L625.065,154.836C625.581,154.836 626,159.802 626,165.918Z" style="fill:rgb(187,154,247);"/>
                </g>
                <g transform="matrix(7.85714,0,0,1,-4171.38,507.426)">
                    <path d="M626,165.918C626,172.034 625.368,177 624.59,177L620.41,177C619.632,177 619,172.034 619,165.918C619,159.802 619.632,154.836 620.41,154.836L624.59,154.836C625.368,154.836 626,159.802 626,165.918Z" style="fill:rgb(247,118,142);"/>
                </g>
                <g transform="matrix(13.4286,0,0,1,-7411.09,507.426)">
                    <path d="M626,165.918C626,172.034 625.63,177 625.175,177L619.825,177C619.37,177 619,172.034 619,165.918C619,159.802 619.37,154.836 619.825,154.836L625.175,154.836C625.63,154.836 626,159.802 626,165.918Z" style="fill:rgb(122,162,247);"/>
                </g>
                <g transform="matrix(19.1429,0,0,1,-11092.2,507.426)">
                    <path d="M626,165.918C626,172.034 625.741,177 625.421,177L619.579,177C619.259,177 619,172.034 619,165.918C619,159.802 619.259,154.836 619.579,154.836L625.421,154.836C625.741,154.836 626,159.802 626,165.918Z" style="fill:rgb(125,207,255);"/>
                </g>
                <g transform="matrix(20,0,0,1,-11749.3,539.14)">
                    <path d="M626,165.918C626,172.034 625.752,177 625.446,177L619.554,177C619.248,177 619,172.034 619,165.918C619,159.802 619.248,154.836 619.554,154.836L625.446,154.836C625.752,154.836 626,159.802 626,165.918Z" style="fill:rgb(111,211,196);"/>
                </g>
                <g transform="matrix(11.8571,0,0,1,-6558.9,539.14)">
                    <path d="M626,165.918C626,172.034 625.581,177 625.065,177L619.935,177C619.419,177 619,172.034 619,165.918C619,159.802 619.419,154.836 619.935,154.836L625.065,154.836C625.581,154.836 626,159.802 626,165.918Z" style="fill:rgb(216,219,232);"/>
                </g>
                <g transform="matrix(29.61,0,0,1,-17697.9,570.855)">
                    <path d="M626,165.918C626,172.034 625.832,177 625.626,177L619.374,177C619.168,177 619,172.034 619,165.918C619,159.802 619.168,154.836 619.374,154.836L625.626,154.836C625.832,154.836 626,159.802 626,165.918Z" style="fill:rgb(111,211,196);"/>
                </g>
                <g transform="matrix(17.4286,0,0,1,-9940.34,570.855)">
                    <path d="M626,165.918C626,172.034 625.715,177 625.364,177L619.636,177C619.285,177 619,172.034 619,165.918C619,159.802 619.285,154.836 619.636,154.836L625.364,154.836C625.715,154.836 626,159.802 626,165.918Z" style="fill:rgb(216,219,232);"/>
                </g>
                <g transform="matrix(17.2857,0,0,1,-10069.2,602.569)">
                    <path d="M626,165.918C626,172.034 625.713,177 625.359,177L619.641,177C619.287,177 619,172.034 619,165.918C619,159.802 619.287,154.836 619.641,154.836L625.359,154.836C625.713,154.836 626,159.802 626,165.918Z" style="fill:rgb(111,211,196);"/>
                </g>
                <g transform="matrix(11.8571,0,0,1,-6577.9,602.569)">
                    <path d="M626,165.918C626,172.034 625.581,177 625.065,177L619.935,177C619.419,177 619,172.034 619,165.918C619,159.802 619.419,154.836 619.935,154.836L625.065,154.836C625.581,154.836 626,159.802 626,165.918Z" style="fill:rgb(216,219,232);"/>
                </g>
                <g transform="matrix(16.7143,0,0,1,-9491.47,602.569)">
                    <path d="M626,165.918C626,172.034 625.703,177 625.337,177L619.663,177C619.297,177 619,172.034 619,165.918C619,159.802 619.297,154.836 619.663,154.836L625.337,154.836C625.703,154.836 626,159.802 626,165.918Z" style="fill:rgb(125,207,255);"/>
                </g>
                <g transform="matrix(4.28571,0,0,1,-2053.66,634.283)">
                    <path d="M626,165.918C626,172.034 624.841,177 623.414,177L621.586,177C620.159,177 619,172.034 619,165.918C619,159.802 620.159,154.836 621.586,154.836L623.414,154.836C624.841,154.836 626,159.802 626,165.918Z" style="fill:rgb(187,154,247);"/>
                </g>
                <g transform="matrix(4,0,0,1,-1913.81,665.997)">
                    <path d="M626,165.918C626,172.034 624.759,177 623.229,177L621.771,177C620.241,177 619,172.034 619,165.918C619,159.802 620.241,154.836 621.771,154.836L623.229,154.836C624.759,154.836 626,159.802 626,165.918Z" style="fill:rgb(125,207,255);"/>
                </g>
                <g transform="matrix(4.71429,0,0,1,-2355.95,728.787)">
                    <path d="M626,165.918C626,172.034 624.947,177 623.649,177L621.351,177C620.053,177 619,172.034 619,165.918C619,159.802 620.053,154.836 621.351,154.836L623.649,154.836C624.947,154.836 626,159.802 626,165.918Z" style="fill:rgb(125,207,255);"/>
                </g>
                <g transform="matrix(10.2857,0,0,1,-5761.66,728.787)">
                    <path d="M626,165.918C626,172.034 625.517,177 624.923,177L620.077,177C619.483,177 619,172.034 619,165.918C619,159.802 619.483,154.836 620.077,154.836L624.923,154.836C625.517,154.836 626,159.802 626,165.918Z" style="fill:rgb(122,162,247);"/>
                </g>
                <g transform="matrix(5.28571,0,0,1,-2497.66,728.787)">
                    <path d="M626,165.918C626,172.034 625.061,177 623.903,177L621.097,177C619.939,177 619,172.034 619,165.918C619,159.802 619.939,154.836 621.097,154.836L623.903,154.836C625.061,154.836 626,159.802 626,165.918Z" style="fill:rgb(122,162,247);"/>
                </g>
                <g transform="matrix(11,0,0,1,-6121.81,728.787)">
                    <path d="M626,165.918C626,172.034 625.549,177 624.993,177L620.007,177C619.451,177 619,172.034 619,165.918C619,159.802 619.451,154.836 620.007,154.836L624.993,154.836C625.549,154.836 626,159.802 626,165.918Z" style="fill:rgb(111,211,196);"/>
                </g>
                <g transform="matrix(5.92857,0,0,1,-3107.59,760.501)">
                    <path d="M626,165.918C626,172.034 625.162,177 624.131,177L620.869,177C619.838,177 619,172.034 619,165.918C619,159.802 619.838,154.836 620.869,154.836L624.131,154.836C625.162,154.836 626,159.802 626,165.918Z" style="fill:rgb(225,225,225);"/>
                </g>
                <g transform="matrix(4.64286,0,0,1,-2279.23,792.215)">
                    <path d="M626,165.918C626,172.034 624.93,177 623.613,177L621.387,177C620.07,177 619,172.034 619,165.918C619,159.802 620.07,154.836 621.387,154.836L623.613,154.836C624.93,154.836 626,159.802 626,165.918Z" style="fill:rgb(225,225,225);"/>
                </g>
                <g transform="matrix(80.5714,0,0,1,-49237.5,792.215)">
                    <path d="M626,165.918C626,172.034 625.938,177 625.862,177L619.138,177C619.062,177 619,172.034 619,165.918C619,159.802 619.062,154.836 619.138,154.836L625.862,154.836C625.938,154.836 626,159.802 626,165.918Z" style="fill:rgb(225,225,225);"/>
                </g>
                <g transform="matrix(4.64286,0,0,1,-2311.73,823.929)">
                    <path d="M626,165.918C626,172.034 624.93,177 623.613,177L621.387,177C620.07,177 619,172.034 619,165.918C619,159.802 620.07,154.836 621.387,154.836L623.613,154.836C624.93,154.836 626,159.802 626,165.918Z" style="fill:rgb(225,225,225);"/>
                </g>
                <g transform="matrix(1,0,0,1,-122.056,633.644)">
                    <path d="M689,310L689,335.571" style="fill:none;stroke:rgb(198,198,198);stroke-width:2px;"/>
                </g>
                <g transform="matrix(8.16932,0,0,0.688979,-4609.05,1.05075)">
                    <path d="M626,165.918C626,172.034 625.581,177 625.065,177L619.935,177C619.419,177 619,172.034 619,165.918C619,159.802 619.419,154.836 619.935,154.836L625.065,154.836C625.581,154.836 626,159.802 626,165.918Z" style="fill:rgb(225,225,225);"/>
                </g>
                <g transform="matrix(16.2402,0,0,0.688979,-9521.12,1.05075)">
                    <path d="M626,165.918C626,172.034 625.789,177 625.53,177L619.47,177C619.211,177 619,172.034 619,165.918C619,159.802 619.211,154.836 619.47,154.836L625.53,154.836C625.789,154.836 626,159.802 626,165.918Z" style="fill:rgb(225,225,225);"/>
                </g>
                <g transform="matrix(11.3189,0,0,0.688979,-6336.15,1.05075)">
                    <path d="M626,165.918C626,172.034 625.698,177 625.325,177L619.675,177C619.302,177 619,172.034 619,165.918C619,159.802 619.302,154.836 619.675,154.836L625.325,154.836C625.698,154.836 626,159.802 626,165.918Z" style="fill:rgb(225,225,225);"/>
                </g>
                <g transform="matrix(1.08915,0,0,1,-171.171,0)">
                    <path d="M548,1080L548,52L1920,52" style="fill:none;stroke:rgb(245,245,245);stroke-width:1.91px;"/>
                </g>
                <path d="M1920,52L0,52" style="fill:none;stroke:rgb(245,245,245);stroke-width:2px;"/>
                <g transform="matrix(1.08915,0,0,1,-171.171,-41)">
                    <path d="M1920,135L548,135" style="fill:none;stroke:rgb(245,245,245);stroke-width:1.91px;"/>
                </g>
                <g transform="matrix(1,0,0,1,-117.056,0)">
                    <circle cx="770" cy="71.874" r="5.126" style="fill:rgb(168,177,214);"/>
                </g>
                <g transform="matrix(1,0,0,1,-119.056,0)">
                    <path d="M796,52L796,94" style="fill:none;"/>
                </g>
                <g transform="matrix(1,0,0,1,-122.056,0)">
                    <g transform="matrix(1,0,0,1,-14,0)">
                        <rect x="619" y="154.836" width="7" height="22.164" style="fill:rgb(198,198,198);"/>
                    </g>
                    <g transform="matrix(1,0,0,1,-14,31.7723)">
                        <rect x="619" y="154.836" width="7" height="22.164" style="fill:rgb(198,198,198);"/>
                    </g>
                    <g transform="matrix(1,0,0,1,-14,63.5445)">
                        <rect x="619" y="154.836" width="7" height="22.164" style="fill:rgb(198,198,198);"/>
                    </g>
                    <g transform="matrix(1,0,0,1,-14,95.3168)">
                        <rect x="619" y="154.836" width="7" height="22.164" style="fill:rgb(198,198,198);"/>
                    </g>
                    <g transform="matrix(1,0,0,1,-14,127.089)">
                        <rect x="619" y="154.836" width="7" height="22.164" style="fill:rgb(198,198,198);"/>
                    </g>
                    <g transform="matrix(1,0,0,1,-14,158.861)">
                        <rect x="619" y="154.836" width="7" height="22.164" style="fill:rgb(198,198,198);"/>
                    </g>
                    <g transform="matrix(1,0,0,1,-14,190.634)">
                        <rect x="619" y="154.836" width="7" height="22.164" style="fill:rgb(198,198,198);"/>
                    </g>
                    <g transform="matrix(1,0,0,1,-14,222.406)">
                        <rect x="619" y="154.836" width="7" height="22.164" style="fill:rgb(198,198,198);"/>
                    </g>
                    <g transform="matrix(1,0,0,1,-14,254.178)">
                        <rect x="619" y="154.836" width="7" height="22.164" style="fill:rgb(198,198,198);"/>
                    </g>
                    <g transform="matrix(1,0,0,1,-14,285.95)">
                        <rect x="619" y="154.836" width="7" height="22.164" style="fill:rgb(198,198,198);"/>
                    </g>
                    <g transform="matrix(1,0,0,1,-24.3746,285.95)">
                        <rect x="619" y="154.836" width="7" height="22.164" style="fill:rgb(198,198,198);"/>
                    </g>
                    <g transform="matrix(1,0,0,1,-14,317.723)">
                        <rect x="619" y="154.836" width="7" height="22.164" style="fill:rgb(198,198,198);"/>
                    </g>
                    <g transform="matrix(1,0,0,1,-24.3746,317.723)">
                        <rect x="619" y="154.836" width="7" height="22.164" style="fill:rgb(198,198,198);"/>
                    </g>
                    <g transform="matrix(1,0,0,1,-14,349.495)">
                        <rect x="619" y="154.836" width="7" height="22.164" style="fill:rgb(198,198,198);"/>
                    </g>
                    <g transform="matrix(1,0,0,1,-24.3746,349.495)">
                        <rect x="619" y="154.836" width="7" height="22.164" style="fill:rgb(198,198,198);"/>
                    </g>
                    <g transform="matrix(1,0,0,1,-14,381.267)">
                        <rect x="619" y="154.836" width="7" height="22.164" style="fill:rgb(198,198,198);"/>
                    </g>
                    <g transform="matrix(1,0,0,1,-24.3746,381.267)">
                        <rect x="619" y="154.836" width="7" height="22.164" style="fill:rgb(198,198,198);"/>
                    </g>
                    <g transform="matrix(1,0,0,1,-14,413.039)">
                        <rect x="619" y="154.836" width="7" height="22.164" style="fill:rgb(198,198,198);"/>
                    </g>
                    <g transform="matrix(1,0,0,1,-24.3746,413.039)">
                        <rect x="619" y="154.836" width="7" height="22.164" style="fill:rgb(198,198,198);"/>
                    </g>
                    <g transform="matrix(1,0,0,1,-14,444.812)">
                        <rect x="619" y="154.836" width="7" height="22.164" style="fill:rgb(198,198,198);"/>
                    </g>
                    <g transform="matrix(1,0,0,1,-24.3746,444.812)">
                        <rect x="619" y="154.836" width="7" height="22.164" style="fill:rgb(198,198,198);"/>
                    </g>
                    <g transform="matrix(1,0,0,1,-14,476.584)">
                        <rect x="619" y="154.836" width="7" height="22.164" style="fill:rgb(198,198,198);"/>
                    </g>
                    <g transform="matrix(1,0,0,1,-24.3746,476.584)">
                        <rect x="619" y="154.836" width="7" height="22.164" style="fill:rgb(198,198,198);"/>
                    </g>
                    <g transform="matrix(1,0,0,1,-14,508.356)">
                        <rect x="619" y="154.836" width="7" height="22.164" style="fill:rgb(198,198,198);"/>
                    </g>
                    <g transform="matrix(1,0,0,1,-24.3746,508.356)">
                        <rect x="619" y="154.836" width="7" height="22.164" style="fill:rgb(198,198,198);"/>
                    </g>
                    <g transform="matrix(1,0,0,1,-14,540.128)">
                        <rect x="619" y="154.836" width="7" height="22.164" style="fill:rgb(198,198,198);"/>
                    </g>
                    <g transform="matrix(1,0,0,1,-24.3746,540.128)">
                        <rect x="619" y="154.836" width="7" height="22.164" style="fill:rgb(198,198,198);"/>
                    </g>
                    <g transform="matrix(1,0,0,1,-14,571.901)">
                        <rect x="619" y="154.836" width="7" height="22.164" style="fill:rgb(198,198,198);"/>
                    </g>
                    <g transform="matrix(1,0,0,1,-24.3746,571.901)">
                        <rect x="619" y="154.836" width="7" height="22.164" style="fill:rgb(198,198,198);"/>
                    </g>
                    <g transform="matrix(1,0,0,1,-14,603.673)">
                        <rect x="619" y="154.836" width="7" height="22.164" style="fill:rgb(198,198,198);"/>
                    </g>
                    <g transform="matrix(1,0,0,1,-24.3746,603.673)">
                        <rect x="619" y="154.836" width="7" height="22.164" style="fill:rgb(198,198,198);"/>
                    </g>
                    <g transform="matrix(1,0,0,1,-14,635.445)">
                        <rect x="619" y="154.836" width="7" height="22.164" style="fill:rgb(198,198,198);"/>
                    </g>
                    <g transform="matrix(1,0,0,1,-24.3746,635.445)">
                        <rect x="619" y="154.836" width="7" height="22.164" style="fill:rgb(198,198,198);"/>
                    </g>
                    <g transform="matrix(1,0,0,1,-14,667.217)">
                        <rect x="619" y="154.836" width="7" height="22.164" style="fill:rgb(198,198,198);"/>
                    </g>
                    <g transform="matrix(1,0,0,1,-24.3746,667.217)">
                        <rect x="619" y="154.836" width="7" height="22.164" style="fill:rgb(198,198,198);"/>
                    </g>
                    <g transform="matrix(1,0,0,1,-14,698.99)">
                        <rect x="619" y="154.836" width="7" height="22.164" style="fill:rgb(198,198,198);"/>
                    </g>
                    <g transform="matrix(1,0,0,1,-24.3746,698.99)">
                        <rect x="619" y="154.836" width="7" height="22.164" style="fill:rgb(198,198,198);"/>
                    </g>
                    <g transform="matrix(1,0,0,1,-14,730.762)">
                        <rect x="619" y="154.836" width="7" height="22.164" style="fill:rgb(198,198,198);"/>
                    </g>
                    <g transform="matrix(1,0,0,1,-24.3746,730.762)">
                        <rect x="619" y="154.836" width="7" height="22.164" style="fill:rgb(198,198,198);"/>
                    </g>
                    <g transform="matrix(1,0,0,1,-14,762.534)">
                        <rect x="619" y="154.836" width="7" height="22.164" style="fill:rgb(198,198,198);"/>
                    </g>
                    <g transform="matrix(1,0,0,1,-24.3746,762.534)">
                        <rect x="619" y="154.836" width="7" height="22.164" style="fill:rgb(198,198,198);"/>
                    </g>
                    <g transform="matrix(1,0,0,1,-14,794.306)">
                        <rect x="619" y="154.836" width="7" height="22.164" style="fill:rgb(198,198,198);"/>
                    </g>
                    <g transform="matrix(1,0,0,1,-24.3746,794.306)">
                        <rect x="619" y="154.836" width="7" height="22.164" style="fill:rgb(198,198,198);"/>
                    </g>
                    <g transform="matrix(1,0,0,1,-14,826.079)">
                        <rect x="619" y="154.836" width="7" height="22.164" style="fill:rgb(198,198,198);"/>
                    </g>
                    <g transform="matrix(1,0,0,1,-24.3746,826.079)">
                        <rect x="619" y="154.836" width="7" height="22.164" style="fill:rgb(198,198,198);"/>
                    </g>
                    <g transform="matrix(1,0,0,1,-14,857.851)">
                        <rect x="619" y="154.836" width="7" height="22.164" style="fill:rgb(198,198,198);"/>
                    </g>
                    <g transform="matrix(1,0,0,1,-24.3746,857.851)">
                        <rect x="619" y="154.836" width="7" height="22.164" style="fill:rgb(198,198,198);"/>
                    </g>
                    <g transform="matrix(1,0,0,1,-14,889.623)">
                        <rect x="619" y="154.836" width="7" height="22.164" style="fill:rgb(198,198,198);"/>
                    </g>
                    <g transform="matrix(1,0,0,1,-24.3746,889.623)">
                        <rect x="619" y="154.836" width="7" height="22.164" style="fill:rgb(198,198,198);"/>
                    </g>
                </g>
                <g transform="matrix(1,0,0,1,-122.056,0)">
                    <path d="M689,310L689,335.571" style="fill:none;stroke:rgb(198,198,198);stroke-width:2px;"/>
                </g>
                <g transform="matrix(1,0,0,2.32965,-86.1022,-284.105)">
                    <path d="M689,310L689,335.571" style="fill:none;stroke:rgb(198,198,198);stroke-width:1.12px;"/>
                </g>
                <g transform="matrix(1,0,0,3.58108,-86.1022,-419.25)">
                    <path d="M689,310L689,335.571" style="fill:none;stroke:rgb(198,198,198);stroke-width:0.76px;"/>
                </g>
                <g transform="matrix(1,0,0,16.0954,-122.056,-4584.63)">
                    <path d="M689,310L689,335.571" style="fill:none;stroke:rgb(198,198,198);stroke-width:0.18px;"/>
                </g>
                <g transform="matrix(1,0,0,1.05304,-122.056,-9.89423)">
                    <path d="M663,186.55L663,1035" style="fill:none;stroke:rgb(198,198,198);stroke-width:1.95px;"/>
                </g>
            </g>
        </g>
    </g>
</svg>
