<svg width="100%" height="100%" viewBox="0 0 1550 282" version="1.1" xmlns="http://www.w3.org/2000/svg" xmlns:xlink="http://www.w3.org/1999/xlink" xml:space="preserve" xmlns:serif="http://www.serif.com/" style="fill-rule:evenodd;clip-rule:evenodd;stroke-linejoin:round;stroke-miterlimit:2;">
    <g transform="matrix(1,0,0,1,0,-14)">
        <g id="Antelopejs_export_full_h" transform="matrix(0.424658,0,0,0.374125,0,14.3188)">
            <rect x="0" y="0" width="3650" height="751" style="fill:none;"/>
            <g transform="matrix(0.862168,0,0,0.978619,58.8709,11.3379)">
                <g>
                    <g>
                        <g>
                            <path d="M14.07,42.816L114.955,0L142.696,65.367L92.763,86.559L92.769,86.571L18.811,114.198L4.707,81.045C4.707,81.045 -0.43,70.324 0.041,62.536C0.197,59.964 0.786,56.949 3.694,52.778C6.745,48.403 10.441,43.958 14.07,42.816Z" style="fill:url(#_Linear1);"/>
                            <path d="M92.769,86.571L186.778,308.08C190.374,316.553 192.365,327.136 192.752,339.829C193.744,352.264 191.196,364.774 185.109,377.357C159.615,430.053 112.621,441.228 112.621,441.228C112.621,441.228 99.162,409.518 87.962,383.124C96.435,379.528 102.111,373.654 104.99,365.29C108.473,356.669 109.756,347.91 108.838,339.015C108.268,329.257 106.699,321.352 104.13,315.299L3.951,79.252C-0.93,67.752 -1.288,59.334 2.874,53.996C5.385,50.175 7.715,47.317 9.862,45.421C11.055,44.368 12.192,43.613 13.273,43.154L14.07,42.816C25.873,38.533 40.583,55.694 49.859,66.223C60.678,78.953 75.394,85.392 92.769,86.571Z" style="fill:url(#_Linear2);"/>
                            <path d="M754.518,42.816L653.634,0L625.892,65.367L675.825,86.559L675.82,86.571L749.778,114.198L763.881,81.045C763.881,81.045 769.019,70.324 768.547,62.536C768.391,59.964 767.803,56.949 764.894,52.778C761.844,48.403 758.147,43.958 754.518,42.816Z" style="fill:url(#_Linear3);"/>
                            <path d="M675.82,86.571L581.811,308.08C578.214,316.553 576.223,327.136 575.836,339.829C574.844,352.264 577.392,364.774 583.48,377.357C608.973,430.053 655.967,441.228 655.967,441.228C655.967,441.228 669.426,409.518 680.627,383.124C672.153,379.528 666.477,373.654 663.599,365.29C660.115,356.669 658.832,347.91 659.75,339.015C660.32,329.257 661.89,321.352 664.458,315.299L764.637,79.252C769.518,67.752 769.877,59.334 765.714,53.996C763.203,50.175 760.873,47.317 758.726,45.421C757.533,44.368 756.396,43.613 755.315,43.154L754.518,42.816C742.715,38.533 728.006,55.694 718.729,66.223C707.91,78.953 693.194,85.392 675.82,86.571Z" style="fill:url(#_Linear4);"/>
                            <path d="M384.282,711.637L310.342,743.018C306.105,744.816 300.667,744.624 294.027,742.442C287.644,740.866 282.269,734.933 277.902,724.643L173.484,478.61C167.833,465.294 159.193,455.033 147.563,447.826C136.539,440.363 124.891,438.163 112.621,441.228L87.961,383.124C122.916,372.918 157.114,369.988 185.109,377.251C197.527,381.266 208.294,388.124 217.412,397.826C226.272,406.922 232.5,415.707 236.096,424.181L334.349,655.689L384.282,634.497L434.215,655.689L532.467,424.181C536.064,415.707 542.292,406.922 551.152,397.826C560.27,388.124 571.037,381.266 583.455,377.251C611.773,370.217 645.622,373.307 680.602,383.124L655.943,441.228C643.673,438.163 632.025,440.363 621.001,447.826C609.371,455.033 600.73,465.294 595.079,478.61L490.662,724.643C486.295,734.933 480.92,740.866 474.537,742.442C467.897,744.624 462.459,744.816 458.222,743.018L384.282,711.637Z" style="fill:url(#_Linear5);"/>
                        </g>
                        <g transform="matrix(1.77778,0,0,1.77778,-6551.77,-1652.33)">
                            <path d="M4350.16,1020.86L4386.65,1020.86L4481.65,1265.23L4441.03,1265.23L4417.14,1198.78L4319.44,1198.78L4295.44,1265.23L4254.48,1265.23L4350.16,1020.86ZM4406.89,1170.24L4368.41,1063.19L4329.75,1170.24L4406.89,1170.24Z" style="fill:rgb(44,47,52);fill-rule:nonzero;"/>
                            <path d="M4668.69,1265.23L4630.83,1265.23L4630.83,1165.49C4630.83,1148.92 4628.1,1136.78 4622.65,1129.07C4617.19,1121.35 4609.22,1117.49 4598.72,1117.49C4591.45,1117.49 4584.17,1119.3 4576.89,1122.92C4569.61,1126.53 4563.13,1131.45 4557.43,1137.67C4551.74,1143.88 4547.6,1151.06 4544.99,1159.19L4544.99,1265.23L4507.13,1265.23L4507.13,1086.6L4541.42,1086.6L4541.42,1122.71C4546.14,1114.75 4552.19,1107.88 4559.56,1102.09C4566.94,1096.29 4575.34,1091.8 4584.78,1088.62C4594.22,1085.43 4604.19,1083.84 4614.7,1083.84C4625.47,1083.84 4634.4,1085.78 4641.47,1089.64C4648.54,1093.51 4654.05,1098.79 4657.99,1105.5C4661.93,1112.2 4664.7,1119.93 4666.3,1128.68C4667.89,1137.43 4668.69,1146.69 4668.69,1156.47L4668.69,1265.23Z" style="fill:rgb(44,47,52);fill-rule:nonzero;"/>
                            <path d="M4811.17,1256.64C4807.91,1258.25 4803.83,1259.97 4798.95,1261.8C4794.07,1263.63 4788.63,1265.24 4782.62,1266.61C4776.61,1267.99 4770.37,1268.67 4763.9,1268.67C4756.01,1268.67 4748.75,1267.31 4742.1,1264.57C4735.46,1261.82 4730.17,1257.43 4726.23,1251.37C4722.28,1245.32 4720.31,1237.49 4720.31,1227.89L4720.31,1115.84L4696.32,1115.84L4696.32,1086.6L4720.31,1086.6L4720.31,1027.39L4758.17,1027.39L4758.17,1086.6L4797.41,1086.6L4797.41,1115.84L4758.17,1115.84L4758.17,1215.82C4758.53,1221.98 4760.52,1226.55 4764.12,1229.52C4767.73,1232.48 4772.07,1233.96 4777.15,1233.96C4782.52,1233.96 4787.63,1233.03 4792.48,1231.17C4797.33,1229.3 4800.83,1227.83 4802.98,1226.76L4811.17,1256.64Z" style="fill:rgb(44,47,52);fill-rule:nonzero;"/>
                            <path d="M4914.32,1268.67C4900.29,1268.67 4887.57,1266.23 4876.17,1261.34C4864.77,1256.44 4854.97,1249.73 4846.78,1241.2C4838.58,1232.66 4832.26,1222.88 4827.81,1211.85C4823.36,1200.81 4821.13,1189.04 4821.13,1176.52C4821.13,1159.71 4825.01,1144.33 4832.76,1130.36C4840.52,1116.38 4851.42,1105.14 4865.48,1096.62C4879.53,1088.1 4895.9,1083.84 4914.59,1083.84C4933.46,1083.84 4949.74,1088.1 4963.44,1096.63C4977.14,1105.14 4987.73,1116.34 4995.21,1130.2C5002.69,1144.06 5006.43,1158.94 5006.43,1174.85C5006.43,1177.57 5006.35,1180.13 5006.19,1182.51C5006.02,1184.9 5005.8,1186.89 5005.52,1188.48L4861.24,1188.48C4862.06,1198.89 4865,1208 4870.08,1215.81C4875.16,1223.62 4881.72,1229.73 4889.75,1234.14C4897.78,1238.56 4906.39,1240.76 4915.58,1240.76C4925.75,1240.76 4935.35,1238.26 4944.36,1233.24C4953.36,1228.23 4959.53,1221.6 4962.86,1213.34L4995.32,1222.42C4991.22,1231.34 4985.23,1239.27 4977.35,1246.2C4969.47,1253.14 4960.17,1258.62 4949.45,1262.65C4938.74,1266.66 4927.03,1268.67 4914.32,1268.67ZM4860.13,1163.55L4969.15,1163.55C4968.28,1153.38 4965.32,1144.39 4960.25,1136.6C4955.18,1128.8 4948.68,1122.7 4940.74,1118.29C4932.81,1113.88 4924.02,1111.68 4914.37,1111.68C4904.9,1111.68 4896.2,1113.88 4888.27,1118.29C4880.33,1122.7 4873.88,1128.8 4868.9,1136.6C4863.92,1144.39 4861,1153.38 4860.13,1163.55Z" style="fill:rgb(44,47,52);fill-rule:nonzero;"/>
                            <path d="M5037.78,1013.97L5075.64,1013.97L5075.64,1214.12C5075.64,1223.33 5077.03,1229.21 5079.8,1231.74C5082.58,1234.28 5086.09,1235.55 5090.34,1235.55C5094.72,1235.55 5098.96,1235.04 5103.07,1234.04C5107.18,1233.03 5110.71,1231.9 5113.64,1230.65L5119.2,1260.48C5113.56,1262.76 5106.98,1264.69 5099.48,1266.28C5091.98,1267.88 5085.22,1268.67 5079.2,1268.67C5066.26,1268.67 5056.12,1265.05 5048.78,1257.81C5041.44,1250.56 5037.78,1240.49 5037.78,1227.6L5037.78,1013.97Z" style="fill:rgb(44,47,52);fill-rule:nonzero;"/>
                            <path d="M5221.91,1268.67C5207.83,1268.67 5195.13,1266.23 5183.82,1261.35C5172.51,1256.45 5162.8,1249.69 5154.69,1241.05C5146.59,1232.41 5140.37,1222.58 5136.03,1211.56C5131.7,1200.53 5129.53,1188.77 5129.53,1176.26C5129.53,1163.75 5131.7,1151.93 5136.03,1140.79C5140.37,1129.65 5146.59,1119.82 5154.69,1111.3C5162.8,1102.77 5172.56,1096.07 5183.96,1091.18C5195.36,1086.29 5208.06,1083.84 5222.05,1083.84C5236.09,1083.84 5248.75,1086.29 5260.04,1091.18C5271.33,1096.07 5281.07,1102.77 5289.26,1111.3C5297.45,1119.82 5303.72,1129.65 5308.05,1140.79C5312.39,1151.93 5314.56,1163.75 5314.56,1176.26C5314.56,1188.77 5312.39,1200.53 5308.05,1211.56C5303.72,1222.58 5297.5,1232.41 5289.39,1241.05C5281.29,1249.69 5271.55,1256.45 5260.17,1261.35C5248.8,1266.23 5236.04,1268.67 5221.91,1268.67ZM5168.31,1176.6C5168.31,1187.9 5170.72,1198.08 5175.54,1207.12C5180.36,1216.16 5186.8,1223.28 5194.86,1228.49C5202.92,1233.68 5211.94,1236.28 5221.91,1236.28C5231.89,1236.28 5240.95,1233.63 5249.1,1228.31C5257.24,1223 5263.73,1215.77 5268.55,1206.61C5273.38,1197.45 5275.79,1187.34 5275.79,1176.26C5275.79,1164.95 5273.38,1154.78 5268.55,1145.74C5263.73,1136.7 5257.23,1129.52 5249.06,1124.2C5240.89,1118.89 5231.84,1116.24 5221.91,1116.24C5211.94,1116.24 5202.9,1118.95 5194.82,1124.38C5186.73,1129.8 5180.29,1136.98 5175.5,1145.91C5170.7,1154.84 5168.31,1165.07 5168.31,1176.6Z" style="fill:rgb(44,47,52);fill-rule:nonzero;"/>
                            <path d="M5450.48,1268.67C5436.14,1268.67 5423.43,1265.27 5412.35,1258.45C5401.28,1251.63 5392.56,1242.76 5386.2,1231.85L5386.2,1338.55L5348.34,1338.55L5348.34,1086.6L5381.64,1086.6L5381.64,1118.97C5388.61,1108.28 5397.62,1099.76 5408.67,1093.39C5419.72,1087.03 5432.02,1083.84 5445.55,1083.84C5457.9,1083.84 5469.21,1086.29 5479.48,1091.18C5489.76,1096.07 5498.68,1102.83 5506.26,1111.47C5513.83,1120.11 5519.72,1129.94 5523.94,1140.96C5528.16,1151.99 5530.27,1163.64 5530.27,1175.92C5530.27,1192.97 5526.9,1208.54 5520.16,1222.64C5513.41,1236.73 5504.02,1247.93 5491.98,1256.23C5479.95,1264.53 5466.11,1268.67 5450.48,1268.67ZM5438.29,1236.28C5446.34,1236.28 5453.64,1234.59 5460.18,1231.19C5466.71,1227.8 5472.33,1223.28 5477.02,1217.63C5481.71,1211.98 5485.31,1205.54 5487.82,1198.3C5490.33,1191.07 5491.58,1183.61 5491.58,1175.92C5491.58,1167.78 5490.18,1160.09 5487.37,1152.86C5484.57,1145.62 5480.62,1139.29 5475.52,1133.87C5470.42,1128.44 5464.47,1124.15 5457.68,1120.98C5450.89,1117.82 5443.51,1116.24 5435.53,1116.24C5430.57,1116.24 5425.49,1117.14 5420.28,1118.94C5415.07,1120.74 5410.12,1123.22 5405.44,1126.37C5400.76,1129.52 5396.72,1133.24 5393.32,1137.52C5389.92,1141.79 5387.55,1146.3 5386.2,1151.03L5386.2,1197.74C5389.35,1204.96 5393.55,1211.44 5398.81,1217.19C5404.08,1222.93 5410.15,1227.55 5417.03,1231.05C5423.91,1234.54 5431,1236.28 5438.29,1236.28Z" style="fill:rgb(44,47,52);fill-rule:nonzero;"/>
                            <path d="M5646.08,1268.67C5632.05,1268.67 5619.33,1266.23 5607.93,1261.34C5596.53,1256.44 5586.73,1249.73 5578.53,1241.2C5570.34,1232.66 5564.02,1222.88 5559.56,1211.85C5555.11,1200.81 5552.89,1189.04 5552.89,1176.52C5552.89,1159.71 5556.76,1144.33 5564.52,1130.36C5572.27,1116.38 5583.18,1105.14 5597.23,1096.62C5611.28,1088.1 5627.66,1083.84 5646.35,1083.84C5665.22,1083.84 5681.5,1088.1 5695.2,1096.63C5708.89,1105.14 5719.48,1116.34 5726.96,1130.2C5734.45,1144.06 5738.19,1158.94 5738.19,1174.85C5738.19,1177.57 5738.11,1180.13 5737.94,1182.51C5737.78,1184.9 5737.55,1186.89 5737.27,1188.48L5592.99,1188.48C5593.81,1198.89 5596.76,1208 5601.83,1215.81C5606.91,1223.62 5613.47,1229.73 5621.5,1234.14C5629.54,1238.56 5638.15,1240.76 5647.33,1240.76C5657.51,1240.76 5667.1,1238.26 5676.11,1233.24C5685.12,1228.23 5691.29,1221.6 5694.61,1213.34L5727.08,1222.42C5722.98,1231.34 5716.99,1239.27 5709.1,1246.2C5701.22,1253.14 5691.92,1258.62 5681.21,1262.65C5670.49,1266.66 5658.78,1268.67 5646.08,1268.67ZM5591.88,1163.55L5700.91,1163.55C5700.04,1153.38 5697.07,1144.39 5692,1136.6C5686.93,1128.8 5680.43,1122.7 5672.49,1118.29C5664.56,1113.88 5655.77,1111.68 5646.13,1111.68C5636.66,1111.68 5627.96,1113.88 5620.02,1118.29C5612.09,1122.7 5605.63,1128.8 5600.65,1136.6C5595.67,1144.39 5592.75,1153.38 5591.88,1163.55Z" style="fill:rgb(44,47,52);fill-rule:nonzero;"/>
                            <path d="M5750.31,1330.97C5742.16,1330.97 5734.34,1329.71 5726.86,1327.17C5719.38,1324.64 5712.7,1320.73 5706.85,1315.43L5723.71,1290.13C5726.62,1292.91 5730.07,1294.89 5734.04,1296.06C5738.01,1297.23 5741.94,1297.82 5745.82,1297.82C5750.43,1297.82 5754.65,1296.68 5758.49,1294.4C5762.33,1292.12 5765.45,1288.99 5767.86,1285C5770.27,1281.02 5771.47,1276.63 5771.47,1271.84L5771.47,1086.6L5809.33,1086.6L5809.33,1269.37C5809.33,1281.23 5806.61,1291.84 5801.15,1301.2C5795.7,1310.55 5788.56,1317.85 5779.71,1323.1C5770.87,1328.35 5761.07,1330.97 5750.31,1330.97ZM5771.47,1057L5771.47,1015.42L5809.33,1015.42L5809.33,1057L5771.47,1057Z" style="fill:rgb(39,113,218);fill-rule:nonzero;"/>
                            <path d="M5918.63,1268.67C5903.52,1268.67 5889.19,1266.2 5875.64,1261.24C5862.09,1256.28 5850.49,1248.84 5840.83,1238.92L5854.84,1213.5C5865.36,1222.64 5875.8,1229.28 5886.15,1233.41C5896.5,1237.54 5906.82,1239.61 5917.11,1239.61C5927.86,1239.61 5936.55,1237.65 5943.17,1233.75C5949.78,1229.84 5953.09,1224.09 5953.09,1216.5C5953.09,1210.81 5951.34,1206.61 5947.84,1203.88C5944.34,1201.15 5939.33,1198.77 5932.81,1196.72C5926.28,1194.67 5918.47,1192.4 5909.36,1189.9C5896.57,1186.03 5885.82,1182 5877.11,1177.79C5868.4,1173.59 5861.82,1168.41 5857.39,1162.28C5852.95,1156.14 5850.74,1148.3 5850.74,1138.75C5850.74,1127.15 5853.75,1117.26 5859.76,1109.08C5865.78,1100.9 5874.13,1094.64 5884.82,1090.32C5895.51,1086 5907.83,1083.84 5921.78,1083.84C5934.84,1083.84 5946.92,1085.86 5958.03,1089.88C5969.13,1093.91 5978.98,1100.18 5987.58,1108.69L5971.44,1133.73C5963.38,1126.44 5955.17,1121.08 5946.8,1117.64C5938.44,1114.21 5929.45,1112.49 5919.84,1112.49C5914.33,1112.49 5909.01,1113.12 5903.85,1114.36C5898.7,1115.61 5894.48,1117.88 5891.17,1121.17C5887.86,1124.46 5886.21,1129.05 5886.21,1134.95C5886.21,1139.71 5887.6,1143.57 5890.38,1146.52C5893.15,1149.47 5897.29,1151.96 5902.8,1154.01C5908.32,1156.05 5915.06,1158.31 5923.04,1160.81C5937.02,1164.89 5948.99,1168.92 5958.95,1172.89C5968.91,1176.86 5976.55,1181.96 5981.88,1188.2C5987.22,1194.44 5989.89,1203.01 5989.89,1213.89C5989.89,1231.13 5983.4,1244.57 5970.42,1254.21C5957.45,1263.85 5940.19,1268.67 5918.63,1268.67Z" style="fill:rgb(39,113,218);fill-rule:nonzero;"/>
                        </g>
                    </g>
                </g>
            </g>
        </g>
    </g>
    <defs>
        <linearGradient id="_Linear1" x1="0" y1="0" x2="1" y2="0" gradientUnits="userSpaceOnUse" gradientTransform="matrix(-97.5379,41.3847,-41.3847,-97.5379,125.634,20.5319)"><stop offset="0" style="stop-color:rgb(51,127,235);stop-opacity:1"/><stop offset="1" style="stop-color:rgb(19,90,190);stop-opacity:1"/></linearGradient>
        <linearGradient id="_Linear2" x1="0" y1="0" x2="1" y2="0" gradientUnits="userSpaceOnUse" gradientTransform="matrix(-6.54641e-14,407.084,-407.084,-6.54641e-14,33.5972,51.9545)"><stop offset="0" style="stop-color:rgb(51,127,235);stop-opacity:1"/><stop offset="1" style="stop-color:rgb(19,90,190);stop-opacity:1"/></linearGradient>
        <linearGradient id="_Linear3" x1="0" y1="0" x2="1" y2="0" gradientUnits="userSpaceOnUse" gradientTransform="matrix(84.5412,49.5077,-49.5077,84.5412,643.766,22.1565)"><stop offset="0" style="stop-color:rgb(51,127,235);stop-opacity:1"/><stop offset="1" style="stop-color:rgb(19,90,190);stop-opacity:1"/></linearGradient>
        <linearGradient id="_Linear4" x1="0" y1="0" x2="1" y2="0" gradientUnits="userSpaceOnUse" gradientTransform="matrix(2.49267e-14,407.084,-407.084,2.49267e-14,33.5972,51.9545)"><stop offset="0" style="stop-color:rgb(51,127,235);stop-opacity:1"/><stop offset="1" style="stop-color:rgb(19,90,190);stop-opacity:1"/></linearGradient>
        <linearGradient id="_Linear5" x1="0" y1="0" x2="1" y2="0" gradientUnits="userSpaceOnUse" gradientTransform="matrix(2.23637e-14,365.227,-365.227,2.23637e-14,384.818,379.14)"><stop offset="0" style="stop-color:rgb(51,127,235);stop-opacity:1"/><stop offset="1" style="stop-color:rgb(19,90,190);stop-opacity:1"/></linearGradient>
    </defs>
</svg>
