<svg width="64" height="64" viewBox="0 0 64 64" fill="none" xmlns="http://www.w3.org/2000/svg">
<g clip-path="url(#clip0_3125_8624)">
<path fill-rule="evenodd" clip-rule="evenodd" d="M60.9324 8.18164C62.4924 8.18164 63.7573 9.44656 63.7573 11.0066C63.7573 19.079 63.7573 42.1776 63.7573 50.2487C63.7573 51.8101 62.4924 53.075 60.9324 53.075C50.3542 53.075 13.1604 53.075 2.58227 53.075C1.02225 53.075 -0.242676 51.8101 -0.242676 50.2487C-0.242676 42.1776 -0.242676 19.079 -0.242676 11.0066C-0.242676 9.44656 1.02225 8.18164 2.58227 8.18164C13.1604 8.18164 50.3542 8.18164 60.9324 8.18164ZM59.7332 15.4345H3.78147V49.0509H59.7332V15.4345Z" fill="currentColor"/>
<path d="M7.99052 32.214L7.55859 34.5922L14.7846 37.8961L15.2782 35.1945L10.3688 33.4185L15.9422 31.6117L16.452 28.9102L7.99052 32.214Z" fill="currentColor"/>
<path d="M25.7334 28.7383H23.0627L22.5691 31.362H25.2397L25.7334 28.7383ZM24.6375 34.6846H21.9668L21.4731 37.307H24.1438L24.6375 34.6846Z" fill="currentColor"/>
<path d="M25.1318 41.387C29.4108 40.106 31.6939 36.4145 32.2197 33.5426C32.7589 30.6546 31.8334 26.9631 28.0507 25.666L27.5262 28.5084C28.7925 29.1107 29.9192 30.9631 29.4565 33.5118C28.9467 36.2294 27.0165 38.0215 25.6577 38.5607L25.1318 41.387Z" fill="currentColor"/>
<path d="M38.1206 38.8553H40.9764L47.462 25.8828H44.6209L38.1206 38.8553Z" fill="currentColor"/>
<path d="M47.5561 35.1945L47.0625 37.8961L55.5239 34.5922L55.9559 32.214L48.7298 28.9102L48.2201 31.6117L53.1457 33.3877L47.5561 35.1945Z" fill="currentColor"/>
</g>
<defs>
<clipPath id="clip0_3125_8624">
<rect width="64" height="64" fill="white"/>
</clipPath>
</defs>
</svg>
