<svg width="64" height="64" viewBox="0 0 64 64" fill="none" xmlns="http://www.w3.org/2000/svg">
<path fill-rule="evenodd" clip-rule="evenodd" d="M22.9432 39.7339C22.6863 40.7184 21.8204 41.4422 20.7926 41.4422C19.5625 41.4422 18.563 40.405 18.563 39.1278C18.563 37.8497 19.5625 36.8125 20.7926 36.8125C21.8204 36.8125 22.6863 37.5372 22.9432 38.5207H38.9536C39.2105 37.5372 40.0773 36.8125 41.1051 36.8125C42.3352 36.8125 43.3338 37.8497 43.3338 39.1278C43.3338 40.405 42.3352 41.4422 41.1051 41.4422C40.0773 41.4422 39.2105 40.7184 38.9536 39.7339H22.9432Z" fill="currentColor"/>
<path fill-rule="evenodd" clip-rule="evenodd" d="M20.3802 32.3716C20.1233 33.3551 19.2565 34.0798 18.2287 34.0798C16.9986 34.0798 16 33.0417 16 31.7645C16 30.4873 16.9986 29.4492 18.2287 29.4492C19.2565 29.4492 20.1233 30.1739 20.3802 31.1575H42.0744C42.3313 30.1739 43.1972 29.4492 44.2259 29.4492C45.456 29.4492 46.4546 30.4873 46.4546 31.7645C46.4546 33.0417 45.456 34.0798 44.2259 34.0798C43.1972 34.0798 42.3313 33.3551 42.0744 32.3716H20.3802Z" fill="#E3EEFC"/>
<path fill-rule="evenodd" clip-rule="evenodd" d="M22.9432 25.0093C22.6863 25.9928 21.8204 26.7175 20.7926 26.7175C19.5625 26.7175 18.563 25.6804 18.563 24.4022C18.563 23.1251 19.5625 22.0879 20.7926 22.0879C21.8204 22.0879 22.6863 22.8117 22.9432 23.7961H38.9536C39.2105 22.8117 40.0773 22.0879 41.1051 22.0879C42.3352 22.0879 43.3338 23.1251 43.3338 24.4022C43.3338 25.6804 42.3352 26.7175 41.1051 26.7175C40.0773 26.7175 39.2105 25.9928 38.9536 25.0093H22.9432Z" fill="currentColor"/>
<path fill-rule="evenodd" clip-rule="evenodd" d="M26.3671 47.0972C26.1101 48.0807 25.2433 48.8054 24.2155 48.8054C22.9854 48.8054 21.9868 47.7683 21.9868 46.4901C21.9868 45.213 22.9854 44.1758 24.2155 44.1758C25.2433 44.1758 26.1101 44.8995 26.3671 45.8831H35.5868C35.8438 44.8995 36.7106 44.1758 37.7383 44.1758C38.9685 44.1758 39.9671 45.213 39.9671 46.4901C39.9671 47.7683 38.9685 48.8054 37.7383 48.8054C36.7106 48.8054 35.8438 48.0807 35.5868 47.0972H26.3671Z" fill="currentColor"/>
<path fill-rule="evenodd" clip-rule="evenodd" d="M26.3671 17.647C26.1101 18.6305 25.2433 19.3543 24.2155 19.3543C22.9854 19.3543 21.9868 18.3171 21.9868 17.0399C21.9868 15.7618 22.9854 14.7246 24.2155 14.7246C25.2433 14.7246 26.1101 15.4493 26.3671 16.4328H35.5868C35.8438 15.4493 36.7106 14.7246 37.7383 14.7246C38.9685 14.7246 39.9671 15.7618 39.9671 17.0399C39.9671 18.3171 38.9685 19.3543 37.7383 19.3543C36.7106 19.3543 35.8438 18.6305 35.5868 17.647H26.3671Z" fill="currentColor"/>
<path fill-rule="evenodd" clip-rule="evenodd" d="M25.9681 61.8218C25.7102 62.8053 24.8444 63.53 23.8166 63.53C22.5865 63.53 21.5879 62.4929 21.5879 61.2147C21.5879 59.9376 22.5865 58.9004 23.8166 58.9004C24.8444 58.9004 25.7102 59.6251 25.9681 60.6086H36.1008C36.3578 59.6251 37.2246 58.9004 38.2524 58.9004C39.4825 58.9004 40.4811 59.9376 40.4811 61.2147C40.4811 62.4929 39.4825 63.53 38.2524 63.53C37.2246 63.53 36.3578 62.8053 36.1008 61.8218H25.9681Z" fill="currentColor"/>
<path fill-rule="evenodd" clip-rule="evenodd" d="M25.9681 2.92141C25.7102 3.90494 24.8444 4.62965 23.8166 4.62965C22.5865 4.62965 21.5879 3.59247 21.5879 2.31529C21.5879 1.03718 22.5865 0 23.8166 0C24.8444 0 25.7102 0.724706 25.9681 1.70824H36.1008C36.3578 0.724706 37.2246 0 38.2524 0C39.4825 0 40.4811 1.03718 40.4811 2.31529C40.4811 3.59247 39.4825 4.62965 38.2524 4.62965C37.2246 4.62965 36.3578 3.90494 36.1008 2.92141H25.9681Z" fill="currentColor"/>
<path d="M30.8913 56.1677C32.1222 56.1677 33.12 55.1311 33.12 53.8524C33.12 52.5737 32.1222 51.5371 30.8913 51.5371C29.6604 51.5371 28.6626 52.5737 28.6626 53.8524C28.6626 55.1311 29.6604 56.1677 30.8913 56.1677Z" fill="#E3EEFC"/>
<path d="M30.8913 11.9919C32.1222 11.9919 33.12 10.9553 33.12 9.67662C33.12 8.39792 32.1222 7.36133 30.8913 7.36133C29.6604 7.36133 28.6626 8.39792 28.6626 9.67662C28.6626 10.9553 29.6604 11.9919 30.8913 11.9919Z" fill="currentColor"/>
</svg>
