<svg width="64" height="64" viewBox="0 0 64 64" fill="none" xmlns="http://www.w3.org/2000/svg">
<path d="M6.89685 61.2617L19.7094 57.5355L14.5219 61.0467C17.7969 60.3067 21.9344 58.8592 27.1344 56.523L35.6219 47.6742L32.6094 53.8555C35.5219 52.2355 38.6094 50.1117 41.5844 47.6242L43.5594 39.5867L43.9844 45.5367C46.9219 42.8367 49.6844 39.8367 51.9719 36.6742C54.3756 33.3617 56.2544 29.8617 57.1956 26.3742L60.7106 28.7242C60.3956 25.7617 59.4219 23.1867 57.8244 20.8242L62.0269 22.1117C61.0719 19.1742 59.5106 17.2742 56.8706 15.7367C58.3494 11.5742 59.0431 7.22421 59.7881 2.88671L57.4881 2.49921C54.8206 29.0867 35.9969 46.0367 18.9844 53.5467L18.1219 51.3742C33.3344 44.5617 45.1594 33.0617 51.3469 16.4867C49.0844 16.4742 46.8719 16.7492 44.8219 17.2742L44.2094 24.8867L42.5719 17.9492C41.2094 18.4492 39.9594 19.0492 38.8469 19.7492L41.4344 25.1867L37.3344 20.8367C36.3344 21.6367 35.5094 22.5367 34.8844 23.5242C31.0844 29.4617 27.1094 35.3617 19.2844 40.2992L24.9969 42.3242L16.2344 42.0617C14.8094 42.7867 13.3094 43.6742 12.1719 44.5117L18.3844 45.0117L9.04686 47.2117C8.32186 47.9367 7.64686 48.6992 7.03436 49.4617C4.87186 52.2042 3.40936 55.0592 3.75936 57.6555C3.92186 58.9542 4.69685 60.1755 5.95935 60.8592C6.27185 61.0217 6.60936 61.1655 6.89685 61.2617Z" fill="currentColor"/>
</svg>
