<svg width="64" height="64" viewBox="0 0 64 64" fill="none" xmlns="http://www.w3.org/2000/svg">
<g clip-path="url(#clip0_3125_8599)">
<path fill-rule="evenodd" clip-rule="evenodd" d="M8.1945 37.958L6.24969 39.0556L0 35.5285V28.4715L6.24969 24.9444L8.1945 26.042L10.841 19.7918L7.47222 17.8902V10.8333L13.7219 7.30617L19.9716 10.8333V11.2635L25.5113 9.02014V3.52712L31.761 0L38.0107 3.52712V9.02014L43.5505 11.2635V10.8333L49.8002 7.30617L56.0499 10.8333V17.8902L52.6811 19.7918L55.3276 26.042L57.2724 24.9444L63.5221 28.4715V35.5285L57.2724 39.0556L55.3276 37.958L52.6811 44.2082L56.0499 46.1098V53.1667L49.8002 56.6938L43.5505 53.1667V52.7365L38.0107 54.9799V60.4729L31.761 64L25.5113 60.4729V54.9799L19.9716 52.7365V53.1667L13.7219 56.6938L7.47222 53.1667V46.1098L10.841 44.2082L8.1945 37.958ZM9.39098 26.7174L12.4994 28.4715V35.5285L9.39098 37.2826L12.0389 43.5328L13.7219 42.5827L19.9716 46.1098V51.2866L25.5113 53.5299V53.416L31.761 49.8875L38.0107 53.416V53.5299L43.5505 51.2866V46.1098L49.8002 42.5827L51.4832 43.5328L54.1311 37.2826L51.0227 35.5285V28.4715L54.1311 26.7174L51.4832 20.4672L49.8002 21.4173L43.5505 17.8902V12.7134L38.0107 10.4701V10.584L31.761 14.1125L25.5113 10.584V10.4701L19.9716 12.7134V17.8902L13.7219 21.4173L12.0389 20.4672L9.39098 26.7174ZM9.99951 28.9433L6.24969 26.8259L2.51495 28.9339L6.26477 31.1115L9.99951 28.9433ZM7.0775 36.7064L10.8328 34.5864V30.3557L7.0775 32.5347V36.7064ZM1.66795 30.3383V34.5864L5.41092 36.6997V32.5106L1.66795 30.3383ZM14.5497 19.0681L18.305 16.9481V12.7175L14.5497 14.8964V19.0681ZM35.5109 3.99883L31.761 1.88149L28.0263 3.99079L31.7761 6.16709L35.5109 3.99883ZM17.4717 11.305L13.7219 9.18765L9.98717 11.2956L13.737 13.4733L17.4717 11.305ZM9.1388 12.7V16.9481L12.8818 19.0614V14.8723L9.1388 12.7ZM27.1779 5.39386V9.64328L30.9209 11.7553V7.56749L27.1779 5.39386ZM32.5888 11.762L36.3441 9.64328V5.41128L32.5888 7.59027V11.762ZM50.628 19.0681L54.3833 16.9481V12.7175L50.628 14.8964V19.0681ZM45.2171 12.7V16.9481L48.96 19.0614V14.8723L45.2171 12.7ZM53.55 11.305L49.8002 9.18765L46.0654 11.2956L49.8152 13.4733L53.55 11.305ZM58.1002 36.7064L61.8541 34.5864V30.3557L58.1002 32.5347V36.7064ZM61.0222 28.9433L57.2724 26.8259L53.5376 28.9339L57.2875 31.1115L61.0222 28.9433ZM52.6893 30.3383V34.5864L56.4322 36.6997V32.5106L52.6893 30.3383ZM20.9447 39.4911V37.7289H23.6488L22.747 36.8471V24.5089H40.7751V36.8471L39.8733 37.7289H42.5774V39.4911H20.9447ZM24.5492 35.9667H38.9729V26.2711H24.5492V35.9667ZM31.761 38.6107C32.016 38.6107 32.2311 38.5262 32.4038 38.356C32.5765 38.1872 32.6629 37.9781 32.6629 37.7289C32.6629 37.4796 32.5765 37.2692 32.4025 37.1004C32.2298 36.9315 32.016 36.8471 31.761 36.8471C31.5061 36.8471 31.2909 36.9329 31.1183 37.1017C30.9456 37.2706 30.8592 37.4796 30.8592 37.7289C30.8592 37.9781 30.9456 38.1885 31.1196 38.3574C31.2923 38.5262 31.5061 38.6107 31.761 38.6107ZM17.4717 46.5815L13.7219 44.4642L9.98717 46.5721L13.737 48.7498L17.4717 46.5815ZM14.5497 54.3447L18.305 52.2246V47.994L14.5497 50.173V54.3447ZM9.1388 47.9765V52.2246L12.8818 54.338V50.1488L9.1388 47.9765ZM50.628 54.3447L54.3833 52.2246V47.994L50.628 50.173V54.3447ZM53.55 46.5815L49.8002 44.4642L46.0654 46.5721L49.8152 48.7498L53.55 46.5815ZM45.2171 47.9765V52.2246L48.96 54.338V50.1488L45.2171 47.9765ZM27.1779 55.2827V59.5308L30.9209 61.6441V57.455L27.1779 55.2827ZM32.5888 61.6508L36.3441 59.5308V55.2988L32.5888 57.4791V61.6508ZM35.5109 53.8877L31.761 51.7703L28.0263 53.8783L31.7761 56.056L35.5109 53.8877Z" fill="currentColor"/>
</g>
<defs>
<clipPath id="clip0_3125_8599">
<rect width="64" height="64" fill="white"/>
</clipPath>
</defs>
</svg>
