<svg width="64" height="64" viewBox="0 0 64 64" fill="none" xmlns="http://www.w3.org/2000/svg">
<g clip-path="url(#clip0_3125_8594)">
<path fill-rule="evenodd" clip-rule="evenodd" d="M20.665 39.4349V58.4574H1.21191V39.4349H20.665ZM20.665 17.6474V36.6682H1.21191V17.6474H20.665ZM42.9393 39.4349V58.4574H23.4845V39.4349H42.9393ZM40.0543 28.3484H42.9393V36.6682H23.4845V28.3484H26.3695C26.3695 32.4476 26.3695 33.8473 26.3695 33.8473H40.0543V28.3484ZM42.9393 8V27.0224H23.4845V8H42.9393ZM65.2119 39.4349V58.4574H45.7588V39.4349H65.2119ZM62.3286 42.2558H48.6438V55.6365H62.3286V42.2558ZM65.2119 17.6474V36.6682H45.7588V17.6474H65.2119ZM62.3286 20.4683H48.6438V33.8473H62.3286V20.4683Z" fill="currentColor"/>
</g>
<defs>
<clipPath id="clip0_3125_8594">
<rect width="64" height="64" fill="white"/>
</clipPath>
</defs>
</svg>
