<svg width="64" height="64" viewBox="0 0 64 64" fill="none" xmlns="http://www.w3.org/2000/svg">
<path d="M59.6065 21.5387V18.072C59.6065 14.1124 56.5093 10.9448 52.6372 10.9448H34.3603C32.9287 10.9448 31.5844 10.1378 30.854 8.88291L29.3349 6.2382C28.0634 4.10135 25.77 2.72656 23.3154 2.72656H11.35C9.42133 2.72656 7.60981 3.53356 6.28021 4.96778C4.95062 6.40249 4.2641 8.30013 4.35199 10.2722L4.84857 21.5532H4.38128C3.11029 21.5532 1.91204 22.106 1.07903 23.0773C0.246513 24.0486 -0.13337 25.3484 0.0419233 26.6333L3.65082 53.3052C4.13275 56.8313 7.11322 59.506 10.5903 59.506H53.4409C56.9326 59.506 59.9131 56.8163 60.3955 53.2752L63.96 26.6338C64.1353 25.3489 63.7266 24.0486 62.8936 23.0778C62.0757 22.1065 60.9214 21.5387 59.6065 21.5387ZM7.25922 10.1528C7.21527 9.00226 7.60981 7.88165 8.38422 7.04469C9.15864 6.20823 10.2104 5.71485 11.3354 5.71485H23.3007C24.7324 5.71485 26.0766 6.52184 26.8071 7.77678L28.3266 10.4215C29.583 12.5733 31.8916 13.9481 34.3462 13.9481H52.6231C54.8726 13.9481 56.6699 15.7708 56.6699 18.087V21.5532H7.77045L7.25922 10.1528ZM61.0674 26.2154L57.5025 52.8717C57.2251 54.9337 55.4863 56.5177 53.4556 56.5177H10.6049C8.57416 56.5177 6.83539 54.9337 6.55805 52.8867L2.91986 26.2303C2.86175 25.7969 2.97845 25.3784 3.27044 25.0498C3.56292 24.7212 3.94281 24.5419 4.36664 24.5419H59.6211C60.0445 24.5419 60.439 24.7062 60.7168 25.0498C61.0088 25.3784 61.126 25.7819 61.0674 26.2154Z" fill="currentColor"/>
<path d="M26.6318 33.776C26.106 33.1482 25.1856 33.0733 24.5718 33.6117L18.0122 39.3341C17.6909 39.6182 17.5005 40.0367 17.5005 40.4696C17.5005 40.9031 17.6904 41.3216 18.0122 41.6057L24.5718 47.3281C24.8496 47.5673 25.1856 47.6867 25.5215 47.6867C25.9307 47.6867 26.3399 47.5074 26.6318 47.1638C27.1577 46.5366 27.085 45.5948 26.4712 45.0569L21.2114 40.4696L26.4712 35.8828C27.0703 35.345 27.1431 34.4032 26.6318 33.776Z" fill="currentColor"/>
<path d="M45.9902 39.3187L39.4301 33.5958C38.8164 33.058 37.896 33.1324 37.3701 33.7601C36.8442 34.3879 36.9169 35.3292 37.5307 35.867L42.7905 40.4543L37.5307 45.0411C36.9174 45.5794 36.8442 46.5203 37.3701 47.148C37.6626 47.4921 38.0712 47.6713 38.4804 47.6713C38.8164 47.6713 39.1523 47.5515 39.4301 47.3123L45.9902 41.5899C46.3115 41.3058 46.5014 40.8873 46.5014 40.4543C46.5014 40.0209 46.3115 39.6024 45.9902 39.3187Z" fill="currentColor"/>
<path d="M34.0682 29.1285C33.2792 28.9642 32.5047 29.4725 32.3441 30.279L28.2533 50.1518C28.0926 50.9588 28.5897 51.7508 29.3783 51.9151C29.4808 51.9301 29.5829 51.9451 29.6854 51.9451C30.3573 51.9451 30.9711 51.4667 31.117 50.7646L35.2079 30.8918C35.3539 30.0998 34.8573 29.3077 34.0682 29.1285Z" fill="currentColor"/>
</svg>
