<svg width="64" height="64" viewBox="0 0 64 64" fill="none" xmlns="http://www.w3.org/2000/svg">
<g clip-path="url(#clip0_3125_8629)">
<path d="M19.4757 39.1952H15.8436V41.1166H19.4757C21.0295 41.1166 22.2937 39.8236 22.2937 38.2345C22.2937 36.6454 21.0295 35.3525 19.4757 35.3525H18.2233C17.7053 35.3525 17.2839 34.9216 17.2839 34.3918C17.2839 33.862 17.7053 33.4311 18.2233 33.4311H21.8554V31.5098H18.2233C16.6695 31.5098 15.4053 32.8027 15.4053 34.3918C15.4053 35.9809 16.6695 37.2739 18.2233 37.2739H19.4757C19.9937 37.2739 20.4151 37.7048 20.4151 38.2345C20.4151 38.7643 19.9937 39.1952 19.4757 39.1952Z" fill="currentColor"/>
<path d="M31.0608 41.1806V35.0323C31.0608 33.09 29.5157 31.5098 27.6166 31.5098C25.7175 31.5098 24.1724 33.09 24.1724 35.0323V41.1806H26.051V39.3233H29.1821V41.1806H31.0608ZM26.051 37.402V35.0323C26.051 34.1493 26.7533 33.4311 27.6166 33.4311C28.4799 33.4311 29.1821 34.1493 29.1821 35.0323V37.402H26.051Z" fill="currentColor"/>
<path d="M39.8279 41.1806V35.0323C39.8279 33.09 38.2828 31.5098 36.3837 31.5098C34.4846 31.5098 32.9395 33.09 32.9395 35.0323V41.1806H34.8181V39.3233H37.9492V41.1806H39.8279ZM34.8181 37.402V35.0323C34.8181 34.1493 35.5204 33.4311 36.3837 33.4311C37.247 33.4311 37.9492 34.1493 37.9492 35.0323V37.402H34.8181Z" fill="currentColor"/>
<path d="M44.5245 33.4311H48.1566V31.5098H44.5245C42.9708 31.5098 41.7065 32.8027 41.7065 34.3918C41.7065 35.9809 42.9708 37.2739 44.5245 37.2739H45.777C46.295 37.2739 46.7163 37.7048 46.7163 38.2345C46.7163 38.7643 46.295 39.1952 45.777 39.1952H42.1449V41.1166H45.777C47.3308 41.1166 48.595 39.8236 48.595 38.2345C48.595 36.6454 47.3308 35.3525 45.777 35.3525H44.5245C44.0065 35.3525 43.5852 34.9216 43.5852 34.3918C43.5852 33.862 44.0065 33.4311 44.5245 33.4311Z" fill="currentColor"/>
<path d="M2.75896 31.0898L1.02295 31.8241C2.27878 34.9295 4.59267 37.4569 7.5383 38.9404L8.3683 37.2167C5.83234 35.9395 3.84033 33.7636 2.75896 31.0898Z" fill="currentColor"/>
<path d="M30.4969 1.92137C35.3794 1.92137 40.0522 4.06254 43.3167 7.79588L43.6939 8.22703L44.243 8.0878C44.9093 7.91898 45.5939 7.83328 46.2777 7.83328C48.3026 7.83328 50.2613 8.57929 51.7929 9.93398L53.0218 8.48066C51.1489 6.82418 48.7538 5.91192 46.2777 5.91192C45.6296 5.91192 44.9809 5.97481 44.3429 6.09931C40.7442 2.21585 35.7296 0 30.4969 0C27.1125 0 23.7872 0.920463 20.8804 2.66173L21.83 4.31962C24.449 2.75076 27.4459 1.92137 30.4969 1.92137Z" fill="currentColor"/>
<path d="M1.87867 26.5362C1.87867 20.0789 6.99504 14.7456 13.2837 14.6473L13.95 14.6369L14.1607 13.9902C15.2965 10.5015 17.434 7.50342 20.342 5.32036L19.2302 3.77148C16.1836 6.05881 13.8996 9.15361 12.595 12.7528C9.2909 12.9679 6.21514 14.4047 3.87407 16.8415C1.37581 19.4416 0 22.8847 0 26.5362C0 27.6618 0.132509 28.7814 0.393769 29.864L2.21758 29.4037C1.99264 28.4715 1.87867 27.5068 1.87867 26.5362Z" fill="currentColor"/>
<path d="M56.6086 16.3084C56.567 14.0051 55.8193 11.8319 54.4399 10.0117L52.9551 11.1887C54.1175 12.7226 54.7318 14.5633 54.7318 16.5121C54.7318 16.6313 54.7287 16.7585 54.7219 16.9122L54.691 17.6151L55.3366 17.8574C59.3947 19.3804 62.1212 23.3848 62.1212 27.8219C62.1212 32.1525 59.5972 36.0081 55.6908 37.6447L56.4029 39.4227C61.0178 37.4893 63.9999 32.9357 63.9999 27.8219C63.9999 22.8133 61.0564 18.271 56.6086 16.3084Z" fill="currentColor"/>
<path d="M11.6477 42.078V30.5498C11.6477 29.6669 12.35 28.9487 13.2133 28.9487H44.7928V27.0273H13.2133C11.3142 27.0273 9.76904 28.6076 9.76904 30.5498V42.078C9.76904 44.0203 11.3142 45.6005 13.2133 45.6005H17.5968V43.6792H13.2133C12.35 43.6792 11.6477 42.961 11.6477 42.078Z" fill="currentColor"/>
<path d="M50.7867 27.0273H46.6716V28.9487H50.7867C51.6501 28.9487 52.3523 29.6669 52.3523 30.5498V42.078C52.3523 42.961 51.6501 43.6792 50.7867 43.6792H19.4756V45.6005H25.5499V49.2376L22.2936 52.5679V55.9822C20.8498 56.4016 19.7887 57.7613 19.7887 59.3705C19.7887 61.3127 21.3338 62.893 23.2329 62.893C25.132 62.893 26.6772 61.3127 26.6772 59.3705C26.6772 57.7613 25.6161 56.4016 24.1723 55.9822V53.3638L27.4286 50.0334V45.6005H31.0607V58.5439C29.6169 58.9633 28.5558 60.323 28.5558 61.9322C28.5558 63.8744 30.101 65.4547 32 65.4547C33.8991 65.4547 35.4443 63.8744 35.4443 61.9322C35.4443 60.323 34.3832 58.9633 32.9394 58.5439V45.6005H36.5715V50.0333L39.8278 53.3636V55.9821C38.384 56.4014 37.3229 57.7611 37.3229 59.3703C37.3229 61.3126 38.8681 62.8928 40.7672 62.8928C42.6663 62.8928 44.2114 61.3126 44.2114 59.3703C44.2114 57.7611 43.1503 56.4014 41.7065 55.9821V52.5678L38.4501 49.2374V45.6005H50.7867C52.6858 45.6005 54.231 44.0203 54.231 42.078V30.5498C54.231 28.6076 52.6858 27.0273 50.7867 27.0273ZM24.7985 59.3703C24.7985 60.2533 24.0962 60.9715 23.2329 60.9715C22.3696 60.9715 21.6674 60.2533 21.6674 59.3703C21.6674 58.4874 22.3696 57.7692 23.2329 57.7692C24.0962 57.7692 24.7985 58.4874 24.7985 59.3703ZM33.5656 61.9322C33.5656 62.8151 32.8634 63.5333 32 63.5333C31.1367 63.5333 30.4345 62.8151 30.4345 61.9322C30.4345 61.0492 31.1367 60.331 32 60.331C32.8634 60.331 33.5656 61.0492 33.5656 61.9322ZM42.3327 59.3703C42.3327 60.2533 41.6305 60.9715 40.7672 60.9715C39.9039 60.9715 39.2016 60.2533 39.2016 59.3703C39.2016 58.4874 39.9039 57.7692 40.7672 57.7692C41.6305 57.7692 42.3327 58.4874 42.3327 59.3703Z" fill="currentColor"/>
<path d="M31.0605 10.0547H32.9392V20.9424H31.0605V10.0547Z" fill="currentColor"/>
<path d="M31.0605 22.8652H32.9392V24.7866H31.0605V22.8652Z" fill="currentColor"/>
<path d="M25.5498 22.8652H27.4285V24.7866H25.5498V22.8652Z" fill="currentColor"/>
<path d="M27.4285 18.1115L24.1721 14.7812V12.6172H22.2935V15.5769L25.5498 18.9072V20.9431H27.4285V18.1115Z" fill="currentColor"/>
<path d="M36.5713 22.8652H38.45V24.7866H36.5713V22.8652Z" fill="currentColor"/>
<path d="M38.45 18.9072L41.7063 15.5769V12.6172H39.8276V14.7812L36.5713 18.1115V20.9431H38.45V18.9072Z" fill="currentColor"/>
<path d="M31.0605 6.21289H32.9392V8.13426H31.0605V6.21289Z" fill="currentColor"/>
<path d="M22.2935 8.77344H24.1721V10.6948H22.2935V8.77344Z" fill="currentColor"/>
<path d="M39.8276 8.77344H41.7063V10.6948H39.8276V8.77344Z" fill="currentColor"/>
</g>
<defs>
<clipPath id="clip0_3125_8629">
<rect width="64" height="64" fill="white"/>
</clipPath>
</defs>
</svg>
