<svg width="64" height="64" viewBox="0 0 64 64" fill="none" xmlns="http://www.w3.org/2000/svg">
<g clip-path="url(#clip0_3125_8604)">
<path fill-rule="evenodd" clip-rule="evenodd" d="M63.9998 29.6336V60.2808C63.9998 62.3344 62.3339 64.0003 60.2803 64.0003H29.6331C27.5795 64.0003 25.9136 62.3344 25.9136 60.2808V29.6336C25.9136 27.58 27.5795 25.9141 29.6331 25.9141H60.2803C62.3339 25.9141 63.9998 27.58 63.9998 29.6336ZM43.2299 47.0457H48.0072V43.9896H34.691V47.0457H39.4455V60.6539H43.2299V47.0457ZM49.4898 56.2222V59.945C50.0948 60.2564 50.8118 60.4884 51.6375 60.6441C52.4648 60.7982 53.3359 60.8761 54.2508 60.8761C55.1446 60.8761 55.9913 60.7917 56.7959 60.6198C57.5989 60.4495 58.3029 60.1688 58.9079 59.7763C59.513 59.3853 59.9932 58.8727 60.3468 58.2401C60.6988 57.6075 60.8756 56.8272 60.8756 55.8961C60.8756 55.2213 60.775 54.6292 60.5739 54.1215C60.3711 53.6121 60.0808 53.1612 59.6996 52.7654C59.32 52.3696 58.8641 52.0143 58.3321 51.6996C57.8 51.3866 57.2015 51.0897 56.5331 50.8107C56.0449 50.6079 55.6053 50.4133 55.2176 50.2219C54.8299 50.0321 54.5006 49.839 54.2281 49.6411C53.9572 49.4432 53.7463 49.234 53.6003 49.0117C53.4527 48.7911 53.3781 48.5413 53.3781 48.2623C53.3781 48.006 53.4446 47.7741 53.576 47.5697C53.709 47.3636 53.8939 47.1868 54.1356 47.0392C54.3757 46.8916 54.6709 46.7781 55.0197 46.6969C55.3684 46.6142 55.7577 46.5737 56.1844 46.5737C56.4942 46.5737 56.8219 46.598 57.1674 46.6434C57.5129 46.6905 57.86 46.7618 58.2104 46.8592C58.5592 46.9565 58.8982 47.0781 59.2291 47.2258C59.5584 47.3734 59.8634 47.5437 60.1424 47.7384V44.2589C59.5763 44.0415 58.9566 43.8809 58.285 43.7755C57.6135 43.67 56.8446 43.6181 55.9751 43.6181C55.0894 43.6181 54.2508 43.7138 53.4592 43.9036C52.6676 44.0934 51.9717 44.3903 51.3699 44.7942C50.768 45.1965 50.2928 45.7107 49.944 46.3352C49.5952 46.9597 49.42 47.7075 49.42 48.5754C49.42 49.6849 49.7396 50.6323 50.3803 51.4158C51.0211 52.1993 51.9928 52.8627 53.297 53.4045C53.8096 53.6154 54.2865 53.8198 54.7293 54.0225C55.1705 54.2237 55.5534 54.4329 55.8762 54.6503C56.1973 54.8677 56.452 55.1045 56.6386 55.3608C56.8251 55.6171 56.9176 55.9075 56.9176 56.2335C56.9176 56.4736 56.8592 56.6975 56.7424 56.9018C56.6272 57.1079 56.4504 57.2863 56.2136 57.4372C55.9767 57.5896 55.6815 57.7064 55.3279 57.7924C54.9759 57.8784 54.5622 57.9206 54.0886 57.9206C53.2807 57.9206 52.4826 57.7794 51.691 57.4955C50.8994 57.2133 50.1646 56.7883 49.4898 56.2222Z" fill="currentColor"/>
<path fill-rule="evenodd" clip-rule="evenodd" d="M38.0863 3.71957V34.3667C38.0863 36.4203 36.4203 38.0863 34.3667 38.0863H3.71957C1.66594 38.0863 0 36.4203 0 34.3667V3.71957C0 1.66594 1.66594 0 3.71957 0H34.3667C36.4203 0 38.0863 1.66594 38.0863 3.71957Z" stroke="currentColor" stroke-miterlimit="2" stroke-linejoin="round" stroke-dasharray="1 1"/>
</g>
<defs>
<clipPath id="clip0_3125_8604">
<rect width="64" height="64" fill="white"/>
</clipPath>
</defs>
</svg>
