<svg width="64" height="64" viewBox="0 0 64 64" fill="none" xmlns="http://www.w3.org/2000/svg">
<g clip-path="url(#clip0_3125_8619)">
<path fill-rule="evenodd" clip-rule="evenodd" d="M0 38.596C0 37.6602 0.511273 36.7163 1.58671 35.9379C3.33887 34.6712 6.85676 33.7396 10.928 33.7396C14.9992 33.7396 18.5157 34.6712 20.2692 35.9379C21.3433 36.7163 21.8559 37.6602 21.8559 38.596V45.8813C21.8559 46.5512 21.3107 47.095 20.6408 47.095C19.9708 47.095 19.427 46.5512 19.427 45.8813V41.768C17.5148 42.7662 14.4255 43.4537 10.928 43.4537C7.42906 43.4537 4.34107 42.7662 2.42889 41.768V45.8813C2.42889 46.0074 2.51704 46.1132 2.61739 46.2271C2.85336 46.4929 3.20732 46.7302 3.6413 46.9513C5.28361 47.7921 7.93762 48.3102 10.928 48.3102C12.2163 48.3102 13.4436 48.2112 14.557 48.0321C15.2189 47.9264 15.8427 48.378 15.9485 49.0384C16.0556 49.7002 15.604 50.3241 14.9422 50.4298C13.7108 50.6278 12.3533 50.7377 10.928 50.7377C7.42906 50.7377 4.34107 50.0515 2.42889 49.0533V53.1666C2.42889 53.2927 2.51704 53.3985 2.61739 53.5124C2.85336 53.7782 3.20732 54.0155 3.6413 54.2366C5.28361 55.0774 7.93762 55.5955 10.928 55.5955C12.1539 55.5955 13.3256 55.506 14.3957 55.3419C15.0575 55.2401 15.6772 55.6958 15.7789 56.359C15.8807 57.0208 15.425 57.6406 14.7618 57.7423C13.5793 57.924 12.2841 58.023 10.928 58.023C6.85676 58.023 3.33887 57.0927 1.58671 55.8247C0.511273 55.0462 0 54.1037 0 53.1666V38.596ZM19.427 38.596C19.427 38.4698 19.3389 38.3641 19.2385 38.2515C19.0012 37.9843 18.6486 37.7484 18.2146 37.526C16.5723 36.6865 13.9169 36.1684 10.928 36.1684C7.93762 36.1684 5.28361 36.6865 3.6413 37.526C3.20732 37.7484 2.85336 37.9843 2.61739 38.2515C2.51704 38.3641 2.42889 38.4698 2.42889 38.596C2.42889 38.7221 2.51704 38.8279 2.61739 38.9418C2.85336 39.2076 3.20732 39.4449 3.6413 39.6673C5.28361 40.5068 7.93762 41.0249 10.928 41.0249C13.9169 41.0249 16.5723 40.5068 18.2146 39.6673C18.6486 39.4449 19.0012 39.2076 19.2385 38.9418C19.3389 38.8279 19.427 38.7221 19.427 38.596ZM39.7152 38.6028C39.7152 37.6656 40.2265 36.7231 41.3019 35.9447C43.0554 34.6767 46.572 33.7463 50.6432 33.7463C54.7144 33.7463 58.2309 34.6767 59.9844 35.9447C61.0598 36.7231 61.5711 37.6656 61.5711 38.6028V44.6729C61.5711 45.3429 61.0273 45.8881 60.3573 45.8881C59.6861 45.8881 59.1422 45.3429 59.1422 44.6729V41.7735C57.23 42.7716 54.1407 43.4592 50.6432 43.4592C47.1456 43.4592 44.0563 42.7716 42.1441 41.7735V45.8881C42.1441 46.0264 42.2458 46.1403 42.3624 46.2651C42.5306 46.4454 42.7544 46.6109 43.0175 46.7696C44.2882 47.5358 46.3712 48.0633 48.8083 48.2478C49.4769 48.298 49.9786 48.8811 49.9285 49.5497C49.8783 50.2183 49.2938 50.7201 48.6265 50.6699C45.9725 50.4692 43.6874 49.8603 42.1441 49.0547V53.1734C42.1441 53.3361 42.2729 53.4649 42.4207 53.61C42.6269 53.8108 42.8995 53.9965 43.2209 54.1715C44.7167 54.9852 47.1483 55.5114 49.9285 55.59C50.5984 55.6104 51.1273 56.1691 51.1083 56.8391C51.088 57.509 50.5292 58.0366 49.8593 58.0176C46.0322 57.9091 42.791 56.9706 41.1812 55.7406C40.1872 54.9811 39.7152 54.0752 39.7152 53.1734V38.6028ZM59.1422 38.6028C59.1422 38.4766 59.0541 38.3708 58.9537 38.2569C58.7164 37.9911 58.3638 37.7538 57.9298 37.5327C56.2875 36.6919 53.6321 36.1739 50.6432 36.1739C47.6542 36.1739 44.9988 36.6919 43.3565 37.5327C42.9225 37.7538 42.5699 37.9911 42.3326 38.2569C42.2322 38.3708 42.1441 38.4766 42.1441 38.6028C42.1441 38.7289 42.2322 38.8347 42.3326 38.9472C42.5699 39.2144 42.9225 39.4504 43.3565 39.6728C44.9988 40.5122 47.6542 41.0303 50.6432 41.0303C53.6321 41.0303 56.2875 40.5122 57.9298 39.6728C58.3638 39.4504 58.7164 39.2144 58.9537 38.9472C59.0541 38.8347 59.1422 38.7289 59.1422 38.6028ZM18.2133 50.7377C18.2133 50.0677 18.7571 49.5239 19.427 49.5239C20.097 49.5239 20.6408 50.0677 20.6408 50.7377V54.3803C20.6408 55.0503 20.097 55.5955 19.427 55.5955C18.7571 55.5955 18.2133 55.0503 18.2133 54.3803V50.7377ZM19.4284 56.3129C20.1037 56.3129 20.653 56.8621 20.653 57.5388C20.653 58.2142 20.1037 58.7635 19.4284 58.7635C18.7517 58.7635 18.2038 58.2142 18.2038 57.5388C18.2038 56.8621 18.7517 56.3129 19.4284 56.3129ZM57.9325 48.9733C59.446 47.9793 61.5142 48.1379 62.85 49.4453C63.585 50.1627 64 51.1473 64 52.1752C64 53.2059 63.5823 54.1945 62.8459 54.9092L58.7788 58.8964C58.3055 59.3602 57.5501 59.3588 57.0768 58.895C57.0768 58.895 53.0042 54.893 53.0056 54.8957C52.2719 54.1783 51.8569 53.1937 51.8569 52.1671C51.8569 51.135 52.276 50.145 53.0164 49.4276C54.3577 48.1257 56.4245 47.9752 57.9325 48.9733ZM57.9298 56.3278L61.1453 53.1747C61.148 53.1734 61.1493 53.172 61.1507 53.1706C61.4192 52.9089 61.5711 52.5495 61.5711 52.1752C61.5711 51.8009 61.4206 51.4429 61.1534 51.1825V51.1812C60.573 50.6143 59.6332 50.6116 59.05 51.1757L58.7815 51.4388C58.3082 51.904 57.5501 51.9026 57.0782 51.4375C57.0782 51.4375 56.8096 51.173 56.8083 51.1703C56.2265 50.6061 55.2894 50.6061 54.7076 51.1703C54.4377 51.432 54.2858 51.7914 54.2858 52.1671C54.2858 52.54 54.4363 52.8981 54.7035 53.1598L54.7062 53.1612L57.9298 56.3278ZM27.8624 12.8167C29.4341 12.8167 30.656 14.0467 30.656 15.4449V26.7892C30.656 28.1874 29.4341 29.4175 27.8624 29.4175H19.4623L15.1212 32.5136C14.7266 32.7943 14.2085 32.8323 13.7773 32.6099C13.3473 32.3888 13.0761 31.944 13.0761 31.4599V29.4175H11.3714C9.79963 29.4175 8.57908 28.1874 8.57908 26.7892V15.4449C8.57908 14.0467 9.79963 12.8167 11.3714 12.8167H27.8624ZM11.1653 15.4816V26.7526C11.1965 26.7702 11.2982 26.8299 11.3714 26.8299H14.3699C15.0846 26.8299 15.6637 27.409 15.6637 28.1237V28.9482L18.296 27.07C18.5157 26.914 18.7788 26.8299 19.0473 26.8299H27.8624C27.9369 26.8299 28.0386 26.7702 28.0685 26.7526V15.4816C28.0386 15.4639 27.9369 15.4042 27.8624 15.4042H11.3714C11.2982 15.4042 11.1965 15.4639 11.1653 15.4816ZM16.2943 19.3208C16.2943 19.527 16.1275 19.6938 15.9213 19.6938C15.7152 19.6938 15.5484 19.527 15.5484 19.3208C15.5484 18.0244 16.6157 16.9584 17.9122 16.9584C18.117 16.9584 18.2851 17.1252 18.2851 17.33C18.2851 17.5361 18.117 17.7029 17.9122 17.7029C17.0239 17.7029 16.2943 18.4339 16.2943 19.3208ZM17.7155 19.3208C17.7155 19.527 17.5487 19.6938 17.3426 19.6938C17.1378 19.6938 16.9697 19.527 16.9697 19.3208C16.9697 18.8041 17.3955 18.3797 17.9122 18.3797C18.117 18.3797 18.2851 18.5465 18.2851 18.7526C18.2851 18.9574 18.117 19.1256 17.9122 19.1256C17.8037 19.1256 17.7155 19.2137 17.7155 19.3208ZM21.3229 17.7029C21.1168 17.7029 20.95 17.5361 20.95 17.33C20.95 17.1252 21.1168 16.9584 21.3229 16.9584C22.6194 16.9584 23.6854 18.0244 23.6854 19.3208C23.6854 19.527 23.5186 19.6938 23.3124 19.6938C23.1076 19.6938 22.9395 19.527 22.9395 19.3208C22.9395 18.4339 22.2099 17.7029 21.3229 17.7029ZM21.3229 19.1256C21.1168 19.1256 20.95 18.9574 20.95 18.7526C20.95 18.5465 21.1168 18.3797 21.3229 18.3797C21.8396 18.3797 22.2641 18.8041 22.2641 19.3208C22.2641 19.527 22.0973 19.6938 21.8912 19.6938C21.685 19.6938 21.5182 19.527 21.5182 19.3208C21.5182 19.2137 21.4301 19.1256 21.3229 19.1256ZM20.5594 23.2239H18.6743L17.9705 24.8689C17.8891 25.0574 17.6694 25.1456 17.4809 25.0642C17.2911 24.9842 17.2029 24.7645 17.2843 24.5746L19.0704 20.4071C19.1626 20.1888 19.3782 20.045 19.6169 20.045C19.8556 20.045 20.0712 20.1888 20.1648 20.4071L21.9495 24.5746C22.0309 24.7645 21.9427 24.9842 21.7542 25.0642C21.5643 25.1456 21.346 25.0574 21.2646 24.8689L20.5594 23.2239ZM18.9944 22.478H20.2407L19.6169 21.0228L18.9944 22.478ZM34.9171 4.92383H51.4094C52.9798 4.92383 54.2017 6.15251 54.2017 7.55207V18.8964C54.2017 20.2946 52.9798 21.5246 51.4094 21.5246H49.7047V23.567C49.7047 24.0511 49.4335 24.4946 49.0022 24.717C48.5723 24.9381 48.0542 24.9014 47.6596 24.6194L43.3185 21.5246H34.9171C33.3453 21.5246 32.1248 20.2946 32.1248 18.8964V7.55207C32.1248 6.15251 33.3453 4.92383 34.9171 4.92383ZM34.7123 7.58869V18.8584C34.7422 18.8774 34.8439 18.937 34.9171 18.937H43.7322C44.002 18.937 44.2651 19.0211 44.4835 19.1771L47.1171 21.0554V20.2308C47.1171 19.5161 47.6962 18.937 48.4109 18.937H51.4094C51.4826 18.937 51.5843 18.8774 51.6142 18.8584V7.58869C51.5843 7.5697 51.4826 7.51139 51.4094 7.51139H34.9171C34.8439 7.51139 34.7422 7.5697 34.7123 7.58869ZM42.5455 15.8111C42.3231 15.5955 42.1251 15.3744 41.9597 15.1479C41.6572 14.7316 41.4579 14.2936 41.3846 13.8338H40.9059C40.6849 13.8338 40.5058 13.6548 40.5058 13.4337C40.5058 13.2127 40.6849 13.0337 40.9059 13.0337H42.7625V12.3054C42.7625 12.0844 42.9415 11.9053 43.1626 11.9053C43.3836 11.9053 43.564 12.0844 43.564 12.3054V13.0337H44.5648C44.5716 13.0337 44.577 13.0337 44.5825 13.0337H45.4206C45.6416 13.0337 45.8206 13.2127 45.8206 13.4337C45.8206 13.6548 45.6416 13.8338 45.4206 13.8338H44.9486C44.8808 14.2936 44.6815 14.7316 44.3777 15.1479C44.2109 15.3758 44.0129 15.5982 43.7864 15.8138C44.0915 16.043 44.4265 16.2627 44.7818 16.4783C44.9703 16.5922 45.0314 16.8391 44.9161 17.0276C44.8022 17.2161 44.5553 17.2771 44.3668 17.1632C43.9342 16.9001 43.5287 16.6275 43.1653 16.3454C42.7991 16.6289 42.3923 16.9001 41.9597 17.1632C41.7711 17.2771 41.5243 17.2161 41.4104 17.0276C41.2951 16.8391 41.3562 16.5922 41.5447 16.4783C41.9 16.2627 42.2377 16.0416 42.5455 15.8111ZM44.1349 13.8338H42.1997C42.296 14.242 42.532 14.6231 42.8601 14.9866C42.9551 15.0923 43.0581 15.1968 43.1666 15.2985C43.2778 15.1968 43.3823 15.0923 43.4786 14.9852C43.8081 14.6217 44.0454 14.2407 44.1349 13.8338ZM44.8564 9.88467C44.6354 9.88467 44.4563 9.7043 44.4563 9.48325C44.4563 9.26355 44.6354 9.08318 44.8564 9.08318C46.1597 9.08318 47.2311 10.1559 47.2311 11.4592C47.2311 11.6802 47.052 11.8592 46.831 11.8592C46.6099 11.8592 46.4309 11.6802 46.4309 11.4592C46.4309 10.5953 45.7203 9.88467 44.8564 9.88467ZM39.8956 11.4592C39.8956 11.6802 39.7152 11.8592 39.4955 11.8592C39.2745 11.8592 39.0941 11.6802 39.0941 11.4592C39.0941 10.1559 40.1668 9.08318 41.4701 9.08318C41.6911 9.08318 41.8701 9.26355 41.8701 9.48325C41.8701 9.7043 41.6911 9.88467 41.4701 9.88467C40.6062 9.88467 39.8956 10.5953 39.8956 11.4592ZM44.8564 11.2951C44.6354 11.2951 44.4563 11.1161 44.4563 10.895C44.4563 10.674 44.6354 10.4949 44.8564 10.4949C45.3853 10.4949 45.8206 10.9303 45.8206 11.4592C45.8206 11.6802 45.6416 11.8592 45.4206 11.8592C45.1995 11.8592 45.0205 11.6802 45.0205 11.4592C45.0205 11.3697 44.9459 11.2951 44.8564 11.2951ZM41.306 11.4592C41.306 11.6802 41.127 11.8592 40.9059 11.8592C40.6849 11.8592 40.5058 11.6802 40.5058 11.4592C40.5058 10.9303 40.9412 10.4949 41.4701 10.4949C41.6911 10.4949 41.8701 10.674 41.8701 10.895C41.8701 11.1161 41.6911 11.2951 41.4701 11.2951C41.3806 11.2951 41.306 11.3697 41.306 11.4592Z" fill="currentColor"/>
</g>
<defs>
<clipPath id="clip0_3125_8619">
<rect width="64" height="64" fill="white"/>
</clipPath>
</defs>
</svg>
