<svg width="256" height="256" viewBox="0 0 256 256" fill="none" xmlns="http://www.w3.org/2000/svg">
    <path fill-rule="evenodd" clip-rule="evenodd" d="M50.9289 59.9132L71.9306 51L77.7055 64.6077L67.3108 69.0193L67.312 69.0218L51.916 74.773L48.9798 67.8714C48.9798 67.8714 47.9104 65.6396 48.0085 64.0183C48.041 63.4829 48.1636 62.8552 48.7689 61.987C49.4041 61.0762 50.1735 60.1509 50.9289 59.9132Z" fill="url(#paint0_linear_4393_137)"/>
    <path fill-rule="evenodd" clip-rule="evenodd" d="M67.3121 69.0218L86.8823 115.134C87.6309 116.898 88.0454 119.101 88.1259 121.744C88.3325 124.332 87.802 126.936 86.5349 129.556C81.2277 140.526 71.4447 142.852 71.4447 142.852C71.4447 142.852 68.6429 136.251 66.3114 130.756C68.0753 130.007 69.2568 128.785 69.8562 127.044C70.5812 125.249 70.8484 123.425 70.6573 121.574C70.5386 119.543 70.2119 117.897 69.6771 116.637L48.8225 67.4982C47.8064 65.1041 47.7319 63.3518 48.5983 62.2405C49.121 61.4451 49.6061 60.8502 50.053 60.4555C50.3014 60.2363 50.5381 60.0791 50.7631 59.9835L50.929 59.9131C53.3861 59.0215 56.4483 62.594 58.3793 64.7859C60.6316 67.4359 63.695 68.7764 67.3121 69.0218Z" fill="url(#paint1_linear_4393_137)"/>
    <path fill-rule="evenodd" clip-rule="evenodd" d="M205.071 59.9132L184.07 51L178.295 64.6077L188.689 69.0193L188.688 69.0218L204.084 74.773L207.02 67.8714C207.02 67.8714 208.09 65.6396 207.991 64.0183C207.959 63.4829 207.837 62.8552 207.231 61.987C206.596 61.0762 205.827 60.1509 205.071 59.9132Z" fill="url(#paint2_linear_4393_137)"/>
    <path fill-rule="evenodd" clip-rule="evenodd" d="M188.688 69.0218L169.118 115.134C168.369 116.898 167.954 119.101 167.874 121.744C167.668 124.332 168.198 126.936 169.465 129.556C174.772 140.526 184.555 142.852 184.555 142.852C184.555 142.852 187.357 136.251 189.689 130.756C187.925 130.007 186.743 128.785 186.144 127.044C185.419 125.249 185.152 123.425 185.343 121.574C185.462 119.543 185.788 117.897 186.323 116.637L207.178 67.4982C208.194 65.1041 208.268 63.3518 207.402 62.2405C206.879 61.4451 206.394 60.8502 205.947 60.4555C205.699 60.2363 205.462 60.0791 205.237 59.9835L205.071 59.9131C202.614 59.0215 199.552 62.594 197.621 64.7859C195.369 67.4359 192.305 68.7764 188.688 69.0218Z" fill="url(#paint3_linear_4393_137)"/>
    <path fill-rule="evenodd" clip-rule="evenodd" d="M127.998 199.144L112.605 205.677C111.723 206.052 110.591 206.011 109.209 205.557C107.88 205.229 106.761 203.994 105.852 201.852L84.1149 150.635C82.9385 147.862 81.1399 145.726 78.7188 144.226C76.4238 142.672 73.999 142.214 71.4447 142.852L66.3112 130.757C73.5879 128.632 80.707 128.022 86.5349 129.534C89.1199 130.37 91.3614 131.797 93.2593 133.818C95.1038 135.711 96.4002 137.539 97.149 139.304L117.603 187.498L127.998 183.086L138.392 187.498L158.846 139.304C159.594 137.539 160.891 135.711 162.735 133.818C164.634 131.797 166.875 130.37 169.46 129.534C175.355 128.07 182.402 128.713 189.683 130.757L184.55 142.852C181.996 142.214 179.571 142.672 177.276 144.226C174.855 145.726 173.056 147.862 171.88 150.635L150.143 201.852C149.234 203.994 148.115 205.229 146.786 205.557C145.404 206.011 144.272 206.052 143.39 205.677L127.998 199.144Z" fill="url(#paint4_linear_4393_137)"/>
    <defs>
    <linearGradient id="paint0_linear_4393_137" x1="74.1537" y1="55.2742" x2="53.8489" y2="63.8894" gradientUnits="userSpaceOnUse">
    <stop stop-color="#337FEB"/>
    <stop offset="1" stop-color="#135ABE"/>
    </linearGradient>
    <linearGradient id="paint1_linear_4393_137" x1="54.994" y1="61.8156" x2="54.994" y2="146.559" gradientUnits="userSpaceOnUse">
    <stop stop-color="#337FEB"/>
    <stop offset="1" stop-color="#135ABE"/>
    </linearGradient>
    <linearGradient id="paint2_linear_4393_137" x1="182.015" y1="55.6124" x2="199.615" y2="65.9186" gradientUnits="userSpaceOnUse">
    <stop stop-color="#337FEB"/>
    <stop offset="1" stop-color="#135ABE"/>
    </linearGradient>
    <linearGradient id="paint3_linear_4393_137" x1="54.994" y1="61.8156" x2="54.994" y2="146.559" gradientUnits="userSpaceOnUse">
    <stop stop-color="#337FEB"/>
    <stop offset="1" stop-color="#135ABE"/>
    </linearGradient>
    <linearGradient id="paint4_linear_4393_137" x1="128.109" y1="129.927" x2="128.109" y2="205.958" gradientUnits="userSpaceOnUse">
    <stop stop-color="#337FEB"/>
    <stop offset="1" stop-color="#135ABE"/>
    </linearGradient>
    </defs>
    </svg>
    