<svg width="1550" height="282" viewBox="0 0 1550 282" fill="none" xmlns="http://www.w3.org/2000/svg">
<g clip-path="url(#clip0_4122_4701)">
<path fill-rule="evenodd" clip-rule="evenodd" d="M30.1513 20.2366L67.088 4.56055L77.2447 28.4931L58.9629 36.252L58.9651 36.2564L31.8872 46.3714L26.7233 34.2332C26.7233 34.2332 24.8425 30.308 25.015 27.4566C25.0721 26.5149 25.2877 25.411 26.3524 23.8839C27.4695 22.2821 28.8227 20.6547 30.1513 20.2366Z" fill="url(#paint0_linear_4122_4701)"/>
<path fill-rule="evenodd" clip-rule="evenodd" d="M58.9652 36.2564L93.3844 117.357C94.701 120.459 95.4299 124.333 95.5716 128.981C95.9348 133.533 95.0019 138.114 92.7733 142.721C83.4393 162.014 66.2335 166.105 66.2335 166.105C66.2335 166.105 61.3058 154.496 57.2052 144.832C60.3074 143.515 62.3855 141.365 63.4396 138.303C64.7148 135.146 65.1846 131.939 64.8485 128.683C64.6398 125.11 64.0653 122.216 63.1247 120L26.4466 33.5767C24.6595 29.3662 24.5284 26.2842 26.0522 24.3298C26.9716 22.9308 27.8247 21.8845 28.6107 21.1903C29.0475 20.8048 29.4638 20.5283 29.8596 20.3603L30.1514 20.2365C34.4728 18.6684 39.8585 24.9515 43.2547 28.8064C47.2158 33.4672 52.6037 35.8247 58.9652 36.2564Z" fill="url(#paint1_linear_4122_4701)"/>
<path fill-rule="evenodd" clip-rule="evenodd" d="M301.249 20.2366L264.313 4.56055L254.156 28.4931L272.437 36.252L272.436 36.2564L299.514 46.3714L304.677 34.2332C304.677 34.2332 306.558 30.308 306.385 27.4566C306.328 26.5149 306.113 25.411 305.048 23.8839C303.931 22.2821 302.578 20.6547 301.249 20.2366Z" fill="url(#paint2_linear_4122_4701)"/>
<path fill-rule="evenodd" clip-rule="evenodd" d="M272.436 36.2564L238.016 117.357C236.699 120.459 235.97 124.333 235.829 128.981C235.466 133.533 236.398 138.114 238.627 142.721C247.961 162.014 265.167 166.105 265.167 166.105C265.167 166.105 270.095 154.496 274.196 144.832C271.093 143.515 269.015 141.365 267.961 138.303C266.686 135.146 266.216 131.939 266.552 128.683C266.761 125.11 267.335 122.216 268.276 120L304.954 33.5767C306.741 29.3662 306.872 26.2842 305.348 24.3298C304.429 22.9308 303.576 21.8845 302.79 21.1903C302.353 20.8048 301.937 20.5283 301.541 20.3603L301.249 20.2365C296.928 18.6684 291.542 24.9515 288.146 28.8064C284.185 33.4672 278.797 35.8247 272.436 36.2564Z" fill="url(#paint3_linear_4122_4701)"/>
<path fill-rule="evenodd" clip-rule="evenodd" d="M165.696 265.11L138.624 276.599C137.073 277.258 135.082 277.187 132.651 276.388C130.314 275.811 128.346 273.639 126.747 269.872L88.5171 179.793C86.4481 174.917 83.2848 171.16 79.0267 168.522C74.9905 165.789 70.7259 164.984 66.2335 166.106L57.2048 144.833C70.0028 141.096 82.5236 140.023 92.7733 142.682C97.3198 144.152 101.262 146.663 104.6 150.216C107.844 153.546 110.124 156.762 111.441 159.865L147.414 244.626L165.696 236.867L183.978 244.626L219.95 159.865C221.267 156.762 223.547 153.546 226.791 150.216C230.13 146.663 234.072 144.152 238.618 142.682C248.986 140.107 261.379 141.238 274.186 144.833L265.158 166.106C260.666 164.984 256.401 165.789 252.365 168.522C248.107 171.16 244.943 174.917 242.874 179.793L204.644 269.872C203.045 273.639 201.078 275.811 198.741 276.388C196.309 277.187 194.318 277.258 192.767 276.599L165.696 265.11Z" fill="url(#paint4_linear_4122_4701)"/>
<path d="M457.709 64.0684H481.46L543.295 223.127H516.856L501.306 179.875H437.714L422.092 223.127H395.432L457.709 64.0684ZM494.635 161.298L469.588 91.6206L444.425 161.298H494.635Z" fill="white"/>
<path d="M665.038 223.128H640.395V158.208C640.395 147.423 638.618 139.521 635.071 134.502C631.517 129.477 626.33 126.965 619.495 126.965C614.763 126.965 610.025 128.143 605.286 130.499C600.548 132.849 596.33 136.051 592.62 140.1C588.916 144.142 586.222 148.815 584.523 154.107V223.128H559.88V106.859H582.199V130.363C585.271 125.182 589.209 120.71 594.006 116.941C598.81 113.166 604.277 110.244 610.422 108.174C616.566 106.097 623.056 105.062 629.897 105.062C636.907 105.062 642.719 106.325 647.321 108.838C651.923 111.357 655.509 114.793 658.074 119.161C660.638 123.522 662.441 128.553 663.482 134.249C664.517 139.944 665.038 145.971 665.038 152.337V223.128Z" fill="white"/>
<path d="M757.777 217.535C755.655 218.583 753 219.703 749.824 220.894C746.647 222.085 743.106 223.133 739.194 224.025C735.283 224.923 731.221 225.365 727.01 225.365C721.874 225.365 717.149 224.48 712.82 222.697C708.498 220.907 705.055 218.049 702.491 214.105C699.919 210.167 698.637 205.071 698.637 198.822V125.89H683.022V106.858H698.637V68.3184H723.28V106.858H748.821V125.89H723.28V190.966C723.514 194.975 724.81 197.95 727.153 199.883C729.503 201.81 732.327 202.773 735.634 202.773C739.129 202.773 742.455 202.168 745.612 200.957C748.769 199.74 751.047 198.783 752.447 198.087L757.777 217.535Z" fill="white"/>
<path d="M824.917 225.367C815.785 225.367 807.505 223.779 800.085 220.596C792.665 217.406 786.286 213.039 780.955 207.487C775.618 201.928 771.505 195.562 768.608 188.383C765.712 181.197 764.26 173.536 764.26 165.387C764.26 154.446 766.785 144.435 771.83 135.342C776.881 126.243 783.976 118.927 793.127 113.381C802.272 107.835 812.927 105.062 825.092 105.062C837.375 105.062 847.971 107.835 856.889 113.387C865.806 118.927 872.699 126.216 877.567 135.238C882.436 144.259 884.871 153.944 884.871 164.3C884.871 166.071 884.818 167.737 884.714 169.286C884.604 170.842 884.46 172.137 884.278 173.172H790.368C790.901 179.948 792.815 185.877 796.121 190.961C799.428 196.044 803.698 200.021 808.924 202.891C814.151 205.768 819.755 207.2 825.737 207.2C832.357 207.2 838.605 205.573 844.469 202.306C850.328 199.045 854.344 194.729 856.511 189.353L877.639 195.263C874.97 201.069 871.072 206.231 865.943 210.741C860.814 215.258 854.76 218.825 847.783 221.448C840.812 224.058 833.189 225.367 824.917 225.367ZM789.645 156.945H860.605C860.039 150.326 858.112 144.474 854.812 139.404C851.512 134.327 847.282 130.356 842.113 127.486C836.952 124.615 831.23 123.183 824.949 123.183C818.785 123.183 813.123 124.615 807.961 127.486C802.793 130.356 798.595 134.327 795.353 139.404C792.112 144.474 790.211 150.326 789.645 156.945Z" fill="white"/>
<path d="M905.276 59.584H929.919V189.86C929.919 195.855 930.824 199.682 932.627 201.329C934.436 202.982 936.721 203.809 939.487 203.809C942.338 203.809 945.098 203.477 947.773 202.826C950.448 202.168 952.746 201.433 954.653 200.619L958.272 220.035C954.601 221.519 950.318 222.775 945.436 223.81C940.555 224.852 936.155 225.366 932.236 225.366C923.814 225.366 917.213 223.01 912.436 218.297C907.658 213.578 905.276 207.024 905.276 198.634V59.584Z" fill="white"/>
<path d="M1025.13 225.367C1015.96 225.367 1007.69 223.779 1000.33 220.602C992.971 217.413 986.651 213.013 981.372 207.389C976.1 201.765 972.051 195.367 969.226 188.194C966.408 181.015 964.995 173.361 964.995 165.218C964.995 157.075 966.408 149.382 969.226 142.131C972.051 134.88 976.1 128.482 981.372 122.936C986.651 117.384 993.003 113.023 1000.42 109.84C1007.84 106.657 1016.11 105.062 1025.22 105.062C1034.35 105.062 1042.59 106.657 1049.94 109.84C1057.29 113.023 1063.63 117.384 1068.96 122.936C1074.29 128.482 1078.37 134.88 1081.19 142.131C1084.02 149.382 1085.43 157.075 1085.43 165.218C1085.43 173.361 1084.02 181.015 1081.19 188.194C1078.37 195.367 1074.33 201.765 1069.05 207.389C1063.78 213.013 1057.44 217.413 1050.03 220.602C1042.63 223.779 1034.32 225.367 1025.13 225.367ZM990.237 165.439C990.237 172.794 991.806 179.42 994.943 185.304C998.08 191.188 1002.27 195.823 1007.52 199.214C1012.76 202.592 1018.64 204.284 1025.13 204.284C1031.62 204.284 1037.52 202.56 1042.82 199.097C1048.12 195.641 1052.35 190.935 1055.48 184.972C1058.63 179.01 1060.2 172.43 1060.2 165.218C1060.2 157.856 1058.63 151.237 1055.48 145.353C1052.35 139.469 1048.11 134.795 1042.8 131.332C1037.48 127.876 1031.59 126.151 1025.13 126.151C1018.64 126.151 1012.75 127.915 1007.49 131.45C1002.23 134.977 998.035 139.651 994.917 145.463C991.793 151.276 990.237 157.934 990.237 165.439Z" fill="white"/>
<path d="M1173.9 225.367C1164.57 225.367 1156.29 223.154 1149.08 218.715C1141.88 214.276 1136.2 208.502 1132.06 201.401V270.851H1107.42V106.859H1129.09V127.928C1133.63 120.97 1139.49 115.425 1146.69 111.279C1153.88 107.139 1161.88 105.062 1170.69 105.062C1178.73 105.062 1186.09 106.657 1192.78 109.84C1199.47 113.023 1205.27 117.423 1210.21 123.047C1215.13 128.67 1218.97 135.069 1221.71 142.241C1224.46 149.421 1225.83 157.004 1225.83 164.997C1225.83 176.094 1223.64 186.229 1219.25 195.406C1214.86 204.577 1208.75 211.867 1200.91 217.27C1193.08 222.672 1184.07 225.367 1173.9 225.367ZM1165.97 204.284C1171.2 204.284 1175.96 203.184 1180.21 200.971C1184.46 198.765 1188.12 195.823 1191.17 192.145C1194.23 188.468 1196.57 184.276 1198.2 179.564C1199.84 174.858 1200.65 170.002 1200.65 164.997C1200.65 159.698 1199.74 154.693 1197.91 149.987C1196.09 145.275 1193.52 141.154 1190.2 137.627C1186.88 134.092 1183.01 131.3 1178.59 129.237C1174.17 127.18 1169.36 126.151 1164.17 126.151C1160.94 126.151 1157.63 126.737 1154.24 127.909C1150.85 129.08 1147.63 130.695 1144.58 132.745C1141.54 134.795 1138.91 137.217 1136.69 140.002C1134.48 142.782 1132.94 145.717 1132.06 148.796V179.199C1134.11 183.898 1136.84 188.116 1140.27 191.859C1143.7 195.595 1147.65 198.602 1152.13 200.88C1156.61 203.152 1161.22 204.284 1165.97 204.284Z" fill="white"/>
<path d="M1301.21 225.367C1292.08 225.367 1283.8 223.779 1276.38 220.596C1268.96 217.406 1262.58 213.039 1257.25 207.487C1251.92 201.928 1247.8 195.562 1244.9 188.383C1242 181.197 1240.56 173.536 1240.56 165.387C1240.56 154.446 1243.08 144.435 1248.13 135.342C1253.17 126.243 1260.27 118.927 1269.42 113.381C1278.56 107.835 1289.22 105.062 1301.39 105.062C1313.67 105.062 1324.27 107.835 1333.19 113.387C1342.1 118.927 1348.99 126.216 1353.86 135.238C1358.73 144.259 1361.17 153.944 1361.17 164.3C1361.17 166.071 1361.12 167.737 1361 169.286C1360.9 170.842 1360.75 172.137 1360.57 173.172H1266.66C1267.19 179.948 1269.11 185.877 1272.41 190.961C1275.72 196.044 1279.99 200.021 1285.22 202.891C1290.45 205.768 1296.05 207.2 1302.03 207.2C1308.65 207.2 1314.9 205.573 1320.76 202.306C1326.62 199.045 1330.64 194.729 1332.8 189.353L1353.94 195.263C1351.27 201.069 1347.37 206.231 1342.23 210.741C1337.1 215.258 1331.05 218.825 1324.08 221.448C1317.1 224.058 1309.48 225.367 1301.21 225.367ZM1265.94 156.945H1336.9C1336.34 150.326 1334.4 144.474 1331.1 139.404C1327.8 134.327 1323.57 130.356 1318.4 127.486C1313.24 124.615 1307.52 123.183 1301.25 123.183C1295.08 123.183 1289.42 124.615 1284.25 127.486C1279.09 130.356 1274.89 134.327 1271.64 139.404C1268.4 144.474 1266.5 150.326 1265.94 156.945Z" fill="white"/>
<path d="M1369.06 265.916C1363.75 265.916 1358.66 265.096 1353.79 263.443C1348.92 261.796 1344.58 259.251 1340.77 255.801L1351.74 239.334C1353.64 241.143 1355.88 242.432 1358.47 243.194C1361.05 243.955 1363.61 244.339 1366.13 244.339C1369.13 244.339 1371.88 243.597 1374.38 242.113C1376.88 240.629 1378.91 238.592 1380.48 235.995C1382.05 233.404 1382.83 230.547 1382.83 227.429V106.858H1407.47V225.821C1407.47 233.541 1405.7 240.447 1402.15 246.539C1398.6 252.625 1393.95 257.376 1388.19 260.794C1382.44 264.211 1376.06 265.916 1369.06 265.916ZM1382.83 87.5914V60.5273H1407.47V87.5914H1382.83Z" fill="#2771DA"/>
<path d="M1478.61 225.367C1468.78 225.367 1459.45 223.759 1450.63 220.531C1441.81 217.302 1434.26 212.46 1427.98 206.003L1437.09 189.457C1443.94 195.406 1450.74 199.728 1457.47 202.416C1464.21 205.105 1470.93 206.452 1477.63 206.452C1484.62 206.452 1490.28 205.176 1494.59 202.638C1498.89 200.093 1501.04 196.35 1501.04 191.41C1501.04 187.706 1499.91 184.972 1497.63 183.196C1495.35 181.419 1492.09 179.869 1487.84 178.535C1483.59 177.201 1478.51 175.723 1472.58 174.096C1464.26 171.577 1457.26 168.954 1451.59 166.214C1445.92 163.48 1441.64 160.108 1438.75 156.118C1435.86 152.122 1434.43 147.019 1434.43 140.803C1434.43 133.253 1436.38 126.815 1440.3 121.491C1444.21 116.167 1449.65 112.092 1456.61 109.28C1463.57 106.468 1471.58 105.062 1480.66 105.062C1489.17 105.062 1497.03 106.377 1504.26 108.994C1511.48 111.617 1517.9 115.698 1523.49 121.237L1512.99 137.535C1507.74 132.79 1502.4 129.302 1496.95 127.063C1491.51 124.83 1485.66 123.711 1479.4 123.711C1475.82 123.711 1472.35 124.121 1468.99 124.928C1465.64 125.741 1462.9 127.219 1460.74 129.36C1458.59 131.502 1457.51 134.489 1457.51 138.33C1457.51 141.428 1458.42 143.94 1460.23 145.86C1462.03 147.781 1464.72 149.401 1468.31 150.736C1471.9 152.063 1476.29 153.534 1481.48 155.162C1490.58 157.817 1498.38 160.44 1504.86 163.024C1511.34 165.608 1516.31 168.928 1519.78 172.99C1523.26 177.051 1525 182.629 1525 189.711C1525 200.932 1520.77 209.68 1512.32 215.955C1503.88 222.229 1492.65 225.367 1478.61 225.367Z" fill="#2771DA"/>
</g>
<defs>
<linearGradient id="paint0_linear_4122_4701" x1="70.9979" y1="12.0778" x2="35.2867" y2="27.2299" gradientUnits="userSpaceOnUse">
<stop stop-color="#337FEB"/>
<stop offset="1" stop-color="#135ABE"/>
</linearGradient>
<linearGradient id="paint1_linear_4122_4701" x1="37.3008" y1="23.5824" x2="37.3008" y2="172.626" gradientUnits="userSpaceOnUse">
<stop stop-color="#337FEB"/>
<stop offset="1" stop-color="#135ABE"/>
</linearGradient>
<linearGradient id="paint2_linear_4122_4701" x1="260.7" y1="12.6726" x2="291.653" y2="30.7987" gradientUnits="userSpaceOnUse">
<stop stop-color="#337FEB"/>
<stop offset="1" stop-color="#135ABE"/>
</linearGradient>
<linearGradient id="paint3_linear_4122_4701" x1="37.3007" y1="23.5824" x2="37.3007" y2="172.626" gradientUnits="userSpaceOnUse">
<stop stop-color="#337FEB"/>
<stop offset="1" stop-color="#135ABE"/>
</linearGradient>
<linearGradient id="paint4_linear_4122_4701" x1="165.892" y1="143.374" x2="165.892" y2="277.093" gradientUnits="userSpaceOnUse">
<stop stop-color="#337FEB"/>
<stop offset="1" stop-color="#135ABE"/>
</linearGradient>
<clipPath id="clip0_4122_4701">
<rect width="1550" height="282" fill="white"/>
</clipPath>
</defs>
</svg>
